<?xml version="1.0" encoding="UTF-8" standalone="no"?>
<!-- Created with Inkscape (http://www.inkscape.org/) -->

<svg
   xmlns:dc="http://purl.org/dc/elements/1.1/"
   xmlns:cc="http://creativecommons.org/ns#"
   xmlns:rdf="http://www.w3.org/1999/02/22-rdf-syntax-ns#"
   xmlns:svg="http://www.w3.org/2000/svg"
   xmlns="http://www.w3.org/2000/svg"
   xmlns:sodipodi="http://sodipodi.sourceforge.net/DTD/sodipodi-0.dtd"
   xmlns:inkscape="http://www.inkscape.org/namespaces/inkscape"
   id="svg2"
   version="1.1"
   inkscape:version="0.91 r13725"
   width="1458"
   height="561"
   viewBox="0 0 1458 561"
   sodipodi:docname="logo-region-europe.svg">
  <metadata
     id="metadata8">
    <rdf:RDF>
      <cc:Work
         rdf:about="">
        <dc:format>image/svg+xml</dc:format>
        <dc:type
           rdf:resource="http://purl.org/dc/dcmitype/StillImage" />
        <dc:title></dc:title>
      </cc:Work>
    </rdf:RDF>
  </metadata>
  <defs
     id="defs6" />
  <sodipodi:namedview
     pagecolor="#ffffff"
     bordercolor="#666666"
     borderopacity="1"
     objecttolerance="10"
     gridtolerance="10"
     guidetolerance="10"
     inkscape:pageopacity="0"
     inkscape:pageshadow="2"
     inkscape:window-width="1600"
     inkscape:window-height="849"
     id="namedview4"
     showgrid="false"
     inkscape:zoom="0.47325103"
     inkscape:cx="834.06482"
     inkscape:cy="125.26217"
     inkscape:window-x="0"
     inkscape:window-y="0"
     inkscape:window-maximized="1"
     inkscape:current-layer="svg2" />
  <g
     id="g4138"
     transform="translate(0,2.1130435)">
    <path
       style="fill:#fded12"
       d="m 262.01455,552.25 c 0.008,-0.9625 0.7103,-3.74814 1.56065,-6.19031 1.49723,-4.3 1.26058,-9.05969 -0.45045,-9.05969 -0.46043,0 -2.97414,-1.63172 -5.58603,-3.62604 -5.76084,-4.39873 -4.94234,-5.33671 4.6761,-5.35865 7.58067,-0.0173 7.66432,-0.0918 9.84397,-8.76531 0.91298,-3.63308 1.81883,-5.25 2.94121,-5.25 1.12238,0 2.02823,1.61692 2.94121,5.25 2.2052,8.77522 2.17483,8.75 10.53496,8.75 4.07319,0 7.66434,0.41833 7.98033,0.92961 0.31599,0.51129 -2.13245,3.01259 -5.44098,5.55845 -3.30854,2.54586 -6.00446,4.94003 -5.99093,5.32039 0.0135,0.38035 0.91352,3.3489 2,6.59678 1.08647,3.24787 1.97541,6.28537 1.97541,6.75 0,1.7827 -3.18709,0.70703 -7.86712,-2.65523 -2.67945,-1.925 -5.43271,-3.5 -6.11833,-3.5 -0.68563,0 -3.39218,1.575 -6.01455,3.5 -5.32506,3.90895 -7.0069,4.33029 -6.98545,1.75 z M 372,528.71489 c 0,-0.70682 1.11328,-4.64432 2.47396,-8.75 1.36068,-4.10569 2.48568,-7.97287 2.5,-8.59373 0.0143,-0.62086 -3.34896,-3.66907 -7.47396,-6.77379 -10.32483,-7.77109 -10.30818,-7.81314 3.16244,-7.99013 4.48934,-0.059 8.45604,-0.39894 8.81489,-0.75546 0.35885,-0.35653 1.70597,-3.73153 2.99361,-7.5 4.14044,-12.11771 4.57707,-13.01788 5.50617,-11.35178 0.46006,0.825 2.03802,5.21519 3.50658,9.75597 3.21214,9.93198 4.29068,10.72069 13.59369,9.94076 4.53609,-0.38029 7.26656,-0.16572 8.39543,0.65973 1.46971,1.07467 0.82718,1.82602 -5.28782,6.18343 -9.42237,6.71415 -9.58676,7.05491 -6.81631,14.12866 C 406.5027,525.6706 407.3039,530 405.65074,530 c -0.7146,0 -4.60743,-2.475 -8.65074,-5.5 -4.04331,-3.025 -7.57884,-5.5 -7.85672,-5.5 -0.27788,0 -3.73657,2.475 -7.68598,5.5 -7.27115,5.56925 -9.4573,6.54357 -9.4573,4.21489 z m -203.04031,-4.53518 c -0.84717,-0.37384 -3.20504,-1.96709 -5.23971,-3.54055 l -3.69941,-2.86085 -4.84783,3.11085 C 152.50643,522.60012 149.97573,524 149.54895,524 c -0.42677,0 -0.47852,-1.4625 -0.11499,-3.25 1.89586,-9.32219 1.89753,-9.30509 -1.0948,-11.2207 C 145.34294,507.6112 142,504.45371 142,503.54181 c 0,-0.29799 2.5875,-0.5487 5.75,-0.55712 3.1625,-0.008 6.22191,-0.34592 6.79868,-0.75 0.57678,-0.40408 1.59135,-2.59381 2.2546,-4.86606 1.29009,-4.41973 4.19672,-7.93395 4.19672,-5.07398 0,0.84675 0.88401,3.60185 1.96446,6.12244 l 1.96447,4.58291 6.03553,0 c 3.31955,0 6.0392,0.3375 6.04368,0.75 0.004,0.4125 -2.09599,2.58278 -4.6677,4.82284 l -4.67583,4.07284 1.55603,6.17716 c 0.85582,3.39744 1.49378,6.14553 1.4177,6.10687 -0.0761,-0.0386 -0.83148,-0.37615 -1.67865,-0.75 z m 661.35145,-24.31177 c -4.53344,-2.19955 -7.79033,-6.17679 -6.91851,-8.44873 0.89029,-2.32007 4.33052,-1.62243 7.55819,1.53272 1.66088,1.62356 4.64481,3.25679 6.63094,3.62939 4.74004,0.88923 11.02996,-1.0591 12.96799,-4.0169 1.9611,-2.99302 2.98369,-9.1167 1.65911,-9.93534 -0.55637,-0.34385 -2.96846,0.49352 -5.36022,1.86082 -2.39175,1.36731 -5.53118,2.49143 -6.97652,2.49805 -7.52017,0.0345 -16.35885,-7.38244 -17.44731,-14.64079 C 820.36652,458.62151 828.05162,448 840.041,448 c 3.35534,0 6.34996,0.58483 7.51787,1.4682 2.51635,1.90327 4.21755,1.89824 6.13394,-0.0182 0.85247,-0.85247 2.28283,-1.4091 3.17857,-1.23696 1.4319,0.27519 1.66127,2.81904 1.89894,21.06032 0.28988,22.24854 -0.23157,25.16651 -5.13354,28.72659 -6.01354,4.36736 -16.45136,5.20323 -23.32564,1.86794 z m 15.379,-19.90977 c 5.74416,-2.00242 9.32809,-13.171 6.1849,-19.27391 C 849.12576,455.34619 846.91836,454 840.91458,454 c -5.1357,0 -5.99905,0.31168 -8.23975,2.9746 -3.70498,4.40311 -4.9968,9.11898 -3.75569,13.71031 2.41572,8.93667 8.33991,12.21236 16.771,9.27326 z m 435.97656,20.37516 C 1281.3,499.96667 1281,488.25254 1281,474.30195 c 0,-28.10417 0.1671,-28.7725 6.0985,-24.38726 l 2.9541,2.18406 2.8781,-2.04938 c 3.5627,-2.53686 10.8411,-2.72601 15.7246,-0.40864 11.0062,5.22279 13.4669,24.23711 4.3202,33.38378 -4.7345,4.73444 -11.2618,6.68038 -16.6396,4.96059 -2.1097,-0.67469 -4.2634,-1.62234 -4.7859,-2.1059 -2.5457,-2.35595 -3.55,-0.78892 -3.55,5.53901 0,3.53002 -0.2731,7.13002 -0.607,8 -0.6036,1.57295 -4.4533,2.18817 -5.7263,0.91512 z m 26.4298,-19.95831 c 3.7407,-3.29717 5.0191,-14.25395 2.2955,-19.67468 -2.504,-4.98386 -5.2422,-6.65301 -10.9549,-6.6781 -4.3587,-0.0192 -5.4714,0.40408 -8,3.04275 -2.7689,2.88951 -2.9371,3.54174 -2.9371,11.39222 0,9.32035 1.2777,11.81158 6.9187,13.48966 3.8249,1.13785 10.5495,0.30412 12.6778,-1.57185 z m -620.00805,6.82695 C 681.20771,483.76927 680.5,481.6795 680.5,464.7943 c 0,-12.96547 0.23187,-15.20879 1.66618,-16.11991 1.21433,-0.77138 2.09569,-0.70195 3.25,0.25604 C 686.71722,450.0102 687,452.63965 687,463.65763 687,480.3418 687.73956,482 695.18075,482 705.12557,482 707,478.66971 707,461.00073 c 0,-9.84576 0.2781,-12.17022 1.51273,-12.64399 0.83201,-0.31927 2.19192,-0.0168 3.02202,0.6721 1.26289,1.04811 1.46487,4.19125 1.23726,19.25398 -0.24561,16.25462 -0.45086,18.1089 -2.11516,19.10929 -1.50238,0.90306 -2.11637,0.70611 -3.32092,-1.06522 l -1.47777,-2.17311 -4.82431,2.42311 c -5.63484,2.83022 -8.27019,2.95747 -12.9454,0.62508 z m 81.72912,0.61132 c -4.98863,-1.32763 -10.24313,-6.67918 -12.20159,-12.42693 -2.09127,-6.13754 -2.03724,-8.18542 0.3869,-14.66452 C 761.28798,451.94164 766.6423,448 775.28422,448 c 4.42251,0 6.1702,0.54656 9.52987,2.98028 4.9413,3.57947 6.88995,7.04836 7.32529,13.04013 l 0.32546,4.47959 -13.97082,0.5 c -15.18107,0.54331 -15.53683,0.70896 -14.07047,6.55142 1.86896,7.44652 15.81184,9.84062 20.267,3.48 1.70035,-2.4276 7.30945,-2.86098 7.30945,-0.56475 0,2.45636 -6.39762,8.03628 -10.68761,9.32159 -4.63083,1.38743 -6.36136,1.3912 -11.49482,0.025 z m 14.52186,-24.39005 c 2.10598,-0.80814 0.28015,-5.79071 -3.09476,-8.44542 -4.05018,-3.18587 -12.59096,-1.15065 -15.81405,3.76841 -2.85336,4.35478 -1.40639,5.25377 8.45621,5.25377 4.92228,0 9.62595,-0.25954 10.4526,-0.57676 z M 922.09258,487.7081 C 916.5861,485.95032 911.42672,480.28275 909.61364,474 908.21543,469.1549 908.19447,467.86814 909.4376,463.19353 912.07844,453.26307 918.33529,448 927.5,448 c 9.56772,0 16.07523,6.09553 16.68741,15.63097 L 944.5,468.5 l -14,0.5 -14,0.5 -0.29562,2.53442 c -0.16526,1.41679 0.72295,4.04588 2.01416,5.9619 4.00337,5.9406 13.34133,6.35333 19.59115,0.86591 3.6661,-3.21888 5.52681,-3.30221 5.97921,-0.26778 0.40113,2.69052 -5.36693,7.8126 -10.40492,9.23965 -4.82468,1.36663 -6.68042,1.34593 -11.2914,-0.126 z M 938,461.63636 c 0,-1.3 -1.18636,-3.55 -2.63636,-5 -3.59916,-3.59915 -11.94316,-3.81315 -15.06436,-0.38636 -2.68183,2.9444 -4.39049,6.32546 -3.59743,7.11852 C 917.04917,463.71583 921.98333,464 927.66667,464 937.86325,464 938,463.96872 938,461.63636 Z m 138.2096,26.1053 c -9.8121,-3.14354 -15.6593,-16.14916 -12.068,-26.84244 1.3952,-4.15424 3.1893,-6.33657 8.2584,-10.04562 3.3079,-2.4203 4.8525,-2.8536 10.1723,-2.8536 5.5429,0 6.7636,0.37792 10.498,3.25 5.9882,4.60553 7.9297,8.77608 7.9297,17.03406 0,10.45376 -4.3229,16.73984 -13.3762,19.45076 -4.8203,1.44337 -6.9264,1.44463 -11.4142,0.007 z m 14.1167,-7.53692 c 3.1421,-2.84362 4.6737,-6.84835 4.6737,-12.22082 0,-9.07105 -4.346,-13.90937 -12.5,-13.91615 -8.3863,-0.007 -12.483,4.79603 -12.4934,14.64743 -0.01,5.5064 0.341,6.61112 3.0415,9.68675 1.6764,1.90935 4.0389,3.68263 5.25,3.94062 3.6952,0.78719 10.0426,-0.34096 12.0282,-2.13783 z m 71.2955,7.38432 c -4.9744,-1.54074 -10.1787,-7.23123 -11.6687,-12.75871 -1.5063,-5.58769 -0.4915,-14.22307 2.179,-18.54415 3.5003,-5.66357 8.3903,-8.2862 15.45,-8.2862 5.1628,0 6.7424,0.45241 10.1185,2.89808 4.4085,3.19348 7.2994,8.98457 7.2994,14.62216 l 0,3.47976 -14.0314,0 c -11.5591,0 -14.1329,0.26469 -14.6078,1.50224 -0.8699,2.26679 0.3788,6.08348 2.9793,9.10682 2.047,2.37967 3.0768,2.71418 8.5867,2.78904 5.6376,0.0766 6.4956,-0.18786 8.6191,-2.65652 2.7728,-3.2236 7.4541,-3.81252 7.4541,-0.93775 0,2.70238 -5.96,7.86745 -10.5,9.0995 -4.8227,1.30877 -6.8077,1.25625 -11.8782,-0.31427 z m 16.2088,-25.93793 c 0.1975,-1.03084 -0.8756,-3.13248 -2.4253,-4.75 -2.3612,-2.46452 -3.5528,-2.90113 -7.9181,-2.90113 -4.055,0 -5.5707,0.47445 -7.1879,2.25 -2.7216,2.98809 -4.387,6.32901 -3.5647,7.1513 0.3654,0.36534 5.1818,0.53701 10.7031,0.38148 8.8445,-0.24914 10.081,-0.50274 10.3929,-2.13165 z m 158.7301,25.9999 c -4.9799,-1.38583 -10.1466,-6.49831 -11.5029,-11.38214 -2.831,-10.19407 -0.084,-20.06428 7.0157,-25.20719 3.4729,-2.51575 5.1894,-3.0617 9.6262,-3.0617 8.8972,0 15.2502,4.8461 17.3459,13.23155 1.9262,7.707 1.8247,7.76845 -12.8231,7.76845 -15.4382,0 -17.2123,0.71837 -14.9551,6.05575 2.4324,5.75169 4.9326,7.27758 11.9247,7.27758 5.6431,0 6.3844,-0.25847 8.7371,-3.04656 2.0582,-2.43912 3.0039,-2.88328 4.7431,-2.22763 4.5199,1.70393 -0.8296,8.65718 -8.2883,10.77317 -4.7557,1.34916 -6.4151,1.32372 -11.8233,-0.18128 z M 1353,462.34439 c 0,-0.91058 -1.1479,-3.16058 -2.5509,-5 -2.3218,-3.04405 -3.0178,-3.34239 -7.75,-3.32215 -5.494,0.0235 -8.529,1.6474 -10.5821,5.66202 -2.0896,4.08609 -1.5637,4.31574 9.883,4.31574 9.5706,0 11,-0.21514 11,-1.65561 z m 20.8912,25.30076 c -4.4583,-1.41474 -6.5779,-3.13867 -8.5514,-6.95502 -1.2669,-2.44982 -1.2984,-3.10131 -0.1841,-3.80752 2.4857,-1.57537 4.6947,-0.90148 6.8176,2.07983 3.7578,5.27735 13.5984,5.03104 15.5063,-0.38811 0.8545,-2.42696 0.6238,-3.08866 -1.8057,-5.17842 -1.532,-1.31775 -3.5802,-2.39591 -4.5515,-2.39591 -3.0662,0 -10.7599,-3.01359 -12.9842,-5.08586 -1.6174,-1.50686 -2.1382,-3.17515 -2.1382,-6.8495 0,-4.30848 0.3995,-5.20822 3.5348,-7.96105 3.1506,-2.76622 4.2169,-3.10359 9.8102,-3.10359 5.6771,0 6.5794,0.2973 9.4652,3.11866 3.9373,3.8495 4.3491,7.88134 0.8048,7.88134 -1.4405,0 -3.0337,-0.99003 -4.023,-2.5 -1.3824,-2.10979 -2.4113,-2.5 -6.592,-2.5 -4.1018,0 -5.2198,0.40579 -6.4996,2.3591 -2.8702,4.38043 -0.5024,6.44986 9.9996,8.73977 8.2924,1.80811 11.5,5.05394 11.5,11.63712 0,4.04926 -0.4727,5.32835 -2.75,7.44085 -4.8644,4.51244 -10.5122,5.64088 -17.3588,3.46831 z M 632.21226,486.75 c -0.72061,-0.87229 -0.59107,-2.45867 0.42869,-5.25 0.80373,-2.2 4.64193,-13.45 8.52934,-25 3.88741,-11.55 7.5769,-21.33061 8.19886,-21.73469 1.52152,-0.98849 5.82041,-0.93155 7.44493,0.0986 0.72275,0.45832 3.36618,6.86393 5.87429,14.23468 2.50811,7.37076 6.30427,18.51214 8.43592,24.75863 2.13164,6.24648 3.87571,11.72866 3.87571,12.18261 0,0.45395 -0.95018,1.12694 -2.11151,1.49553 -2.76059,0.87618 -4.29967,-0.82418 -6.3681,-7.03539 -2.65248,-7.96501 -3.5084,-8.50489 -13.42538,-8.4682 -5.18544,0.0192 -9.21621,0.51506 -10.16097,1.25 -0.86128,0.67001 -2.36668,3.6932 -3.34533,6.7182 -1.96044,6.05964 -3.19467,8 -5.08871,8 -0.69031,0 -1.7198,-0.5625 -2.28774,-1.25 z m 28.40353,-21.19116 c 0.39896,-1.03967 -4.66033,-19.28686 -6.19197,-22.33238 -0.45414,-0.90301 -3.42382,1.24752 -3.42382,2.4794 0,0.82053 -0.63542,2.90989 -1.41205,4.64301 -2.57434,5.7449 -4.7816,13.7041 -4.21205,15.18832 0.79825,2.08022 14.44251,2.09961 15.23989,0.0216 z m 72.65671,21.63073 c -0.67513,-0.42889 -3.22472,-6.3845 -5.66576,-13.23468 -2.44104,-6.85019 -5.40423,-15.11099 -6.58486,-18.35733 -1.72586,-4.74556 -1.88937,-6.06557 -0.83424,-6.73469 3.76815,-2.38961 5.69586,0.12383 9.6922,12.63713 5.20408,16.29502 7.14963,19.93572 8.4166,15.75 2.84054,-9.38431 9.90374,-27.76016 10.91754,-28.40341 1.76414,-1.11933 3.54367,-1.04774 4.29806,0.1729 0.34654,0.56071 -0.35239,3.82321 -1.55319,7.25 -1.2008,3.42678 -3.96244,11.39513 -6.13696,17.70745 -2.17453,6.31232 -4.42913,12.04982 -5.01023,12.75 -1.16793,1.40727 -5.62195,1.68059 -7.53916,0.46263 z m 67.9775,0.14815 c -0.93782,-0.37842 -1.25,-5.20199 -1.25,-19.31406 0,-16.22948 0.21698,-18.89295 1.58179,-19.41667 2.17595,-0.83499 2.1051,-0.85945 4.28301,1.47826 l 1.94271,2.08525 3.92397,-2.25835 c 4.2988,-2.47407 7.26852,-2.09038 7.26852,0.93911 0,1.3224 -1.66556,2.72892 -5.38831,4.55029 -3.45175,1.68879 -5.60325,3.43812 -5.98635,4.86736 -0.32892,1.2271 -0.60418,7.42859 -0.61169,13.78109 -0.0155,13.10914 -0.93763,15.23506 -5.76365,13.28772 z m 68.97919,-0.50853 C 869.34683,485.94683 869,480.45549 869,467.36739 c 0,-17.32704 0.0989,-18.264 1.99105,-18.86455 2.3814,-0.75583 4.00895,0.0789 4.00895,2.05618 0,1.86082 0.2871,1.82696 4.73882,-0.55902 5.35021,-2.86754 12.66985,-2.68841 16.73138,0.40947 4.39856,3.35495 5.5298,8.13971 5.5298,23.38916 0,11.85829 -0.17192,13.12116 -1.85912,13.65666 -1.02252,0.32453 -2.59752,0.30671 -3.5,-0.0396 C 895.22617,486.87281 895,484.82623 895,472.56733 c 0,-13.56967 -0.10565,-14.31795 -2.31445,-16.39302 -2.78519,-2.61655 -9.1543,-2.93514 -12.45531,-0.62303 -3.95819,2.77243 -4.71321,5.5062 -5.23024,18.93778 -0.40658,10.56219 -0.78415,13.04326 -2.02081,13.27918 -0.83645,0.15958 -2.07395,-0.263 -2.75,-0.93905 z M 980.25,487.33772 c -0.95376,-0.38485 -1.25,-6.4989 -1.25,-25.79861 0,-21.42521 0.23278,-25.48741 1.52185,-26.55724 1.1113,-0.9223 4.46512,-1.12352 12.43222,-0.7459 12.46033,0.5906 16.68043,2.36658 19.43943,8.18092 3.1664,6.67266 1.0857,15.30036 -4.4268,18.35577 -6.9456,3.84973 -6.9988,2.95421 0.8775,14.77141 7.2805,10.92331 7.8575,13.35082 2.8758,12.10049 -1.6338,-0.41005 -4.9423,-4.19195 -10.1275,-11.57661 C 993.90402,465.11812 991.77128,463.30304 988,464.5 c -1.82834,0.58029 -2,1.51303 -2,10.86739 0,11.71735 -1.03535,13.87273 -5.75,11.97033 z m 22.1548,-29.47628 c 1.3743,-0.6262 3.2388,-2.69792 4.1432,-4.60382 1.4434,-3.04168 1.4752,-3.90962 0.2608,-7.10056 -0.761,-1.99942 -2.4918,-4.19607 -3.8462,-4.88144 -2.9093,-1.4722 -16.64708,-1.71183 -17.12927,-0.2988 -0.18333,0.53726 -0.18777,4.81226 -0.01,9.5 l 0.32348,8.52318 6.87947,0 c 3.78371,0 8.00402,-0.51235 9.37842,-1.13856 z m 22.0452,29.18981 c -0.5685,-0.56776 -0.8374,-12.21327 -0.6696,-29 L 1024.0609,430 l 2.3611,0 c 3.0224,0 3.7376,2.69701 3.4857,13.14512 -0.1048,4.34797 0.012,8.10828 0.2603,8.35623 0.248,0.24796 2.11,-0.43841 4.1378,-1.52526 5.4592,-2.92594 12.7178,-2.66856 16.5882,0.58819 4.1616,3.50176 5.0939,7.72749 5.1004,23.11833 0.01,12.51737 -0.1004,13.21626 -2.0951,13.84934 -1.1553,0.3667 -2.5377,0.2296 -3.072,-0.30465 -0.5343,-0.53426 -1.0515,-7.06827 -1.1493,-14.52002 -0.1687,-12.84119 -0.3046,-13.68332 -2.6023,-16.12796 -3.5807,-3.80963 -10.159,-3.64985 -14.1526,0.34376 l -2.9231,2.92307 0,12.87693 c 0,12.63037 -0.6063,15.27692 -3.5,15.27692 -0.605,0 -1.5275,-0.42694 -2.05,-0.94875 z m 85.8,0.28647 c -0.9378,-0.37842 -1.25,-5.20199 -1.25,-19.31406 0,-16.76071 0.1847,-18.88055 1.6954,-19.46027 0.9952,-0.38191 2.7956,0.16286 4.3596,1.31914 2.4349,1.80023 2.801,1.83294 4.2538,0.38008 2.3563,-2.35629 11.625,-2.86534 15.5178,-0.85227 5.7723,2.98498 7.1734,7.59076 7.1734,23.58121 0,12.10487 -0.2286,14.15894 -1.6359,14.69898 -0.8998,0.34527 -2.3623,0.17127 -3.25,-0.38666 -1.3248,-0.83263 -1.7037,-3.63157 -2.1141,-15.61823 -0.5722,-16.7112 -1.0211,-17.59714 -8.9453,-17.65384 -3.4877,-0.0249 -5.0494,0.54701 -7.25,2.65529 -2.7937,2.67659 -2.8047,2.73836 -2.8047,15.8 0,14.76934 -0.8042,16.84631 -5.75,14.85063 z m 104.3002,-0.25648 c -0.7778,-1.25854 15.2793,-49.1498 17.2105,-51.33124 1.8925,-2.13766 6.548,-2.28794 8.2264,-0.26554 1.1157,1.34438 6.3909,15.11156 7.6693,20.01554 0.2868,1.1 0.7811,2.675 1.0984,3.5 0.3173,0.825 2.476,7.125 4.7971,14 3.6426,10.78939 4.0279,12.70295 2.8153,13.98305 -2.2434,2.36847 -4.5648,0.0808 -7.0976,-6.9945 -1.2427,-3.47149 -2.524,-6.57657 -2.8473,-6.90018 -1.0775,-1.07848 -16.8828,-1.26767 -19.5695,-0.23425 -2.0781,0.7993 -3.1107,2.41089 -4.8027,7.49527 -1.9325,5.80713 -3.3958,7.65061 -6.0729,7.65061 -0.4725,0 -1.1147,-0.41344 -1.427,-0.91876 z m 28.2356,-20.92769 c 1.0057,-0.63813 0.5005,-3.24862 -2.3195,-11.98469 C 1238.4834,448.02599 1236.5145,443 1236.091,443 c -0.9882,0 -2.8239,4.0014 -5.1475,11.22018 -1.0127,3.1461 -2.3489,6.66876 -2.9694,7.82814 -2.0772,3.88137 -0.6131,4.95298 6.7445,4.93637 3.7298,-0.008 7.36,-0.38244 8.0672,-0.83114 z m 22.6932,20.65239 c -0.2816,-0.73388 -0.3921,-13.70294 -0.2455,-28.82013 L 1265.5,430.5 l 2.5,0 2.5,0 0,28.5 0,28.5 -2.2545,0.32014 c -1.2399,0.17607 -2.4849,-0.28031 -2.7665,-1.0142 z M 953,468.5 c -0.99473,-1.19858 -0.98771,-1.80988 0.0349,-3.0421 1.89361,-2.28166 13.83022,-1.644 15.36067,0.82057 1.61916,2.60743 -0.71997,3.68797 -8.02317,3.70622 -4.24171,0.0106 -6.51068,-0.44634 -7.37244,-1.48469 z m 240,0 c -2.3298,-2.80719 0.5244,-4.5 7.5873,-4.5 5.1435,0 6.5292,0.34908 7.3307,1.8468 1.5645,2.92332 -0.6551,4.1532 -7.4956,4.1532 -4.2712,0 -6.5617,-0.46289 -7.4224,-1.5 z M 452.35107,453.47249 c -0.34914,-0.90985 0.10403,-3.20364 1.00706,-5.09731 0.90303,-1.89367 1.64187,-4.30121 1.64187,-5.35009 0,-1.04888 0.3731,-2.13764 0.82911,-2.41947 0.92557,-0.57204 3.7278,-11.43073 3.08195,-11.94265 -0.22608,-0.17919 -4.81716,-3.56455 -10.20238,-7.52302 -5.38523,-3.95847 -9.52117,-7.63433 -9.19099,-8.16858 0.33364,-0.53984 5.85078,-0.97137 12.41888,-0.97137 8.73419,0 12.11257,-0.35428 12.9452,-1.35754 1.10006,-1.3255 4.4111,-10.14816 6.05807,-16.14246 0.45335,-1.65 1.37377,-4.35 2.04538,-6 l 1.22112,-3 1.81171,4 c 0.99644,2.2 3.08752,8.05 4.64683,13 l 2.83512,9 13,0.5 c 8.17604,0.31446 12.81449,0.87107 12.50006,1.5 -0.75261,1.50542 -5.71723,5.59357 -13.25006,10.91085 -3.7125,2.62059 -6.74778,5.06271 -6.74506,5.42693 0.003,0.36422 1.41755,4.48722 3.14408,9.16222 3.60081,9.75007 4.62462,15 2.92521,15 -0.62951,0 -5.1297,-2.925 -10.0004,-6.5 -4.87071,-3.575 -9.63807,-6.5 -10.59414,-6.5 -0.95607,0 -5.61762,2.83255 -10.359,6.29457 -11.34062,8.28057 -11.02611,8.11548 -11.76962,6.17792 z M 56.748582,450.41525 c -0.291708,-0.29171 0.317089,-3.31697 1.352881,-6.72281 1.035792,-3.40584 1.886696,-6.97534 1.890898,-7.93223 0.0044,-1.0054 -2.326459,-3.28953 -5.521952,-5.41122 -3.041275,-2.0193 -5.368059,-4.16139 -5.170631,-4.76022 0.197428,-0.59882 3.239514,-1.22544 6.760191,-1.39247 C 62.578561,423.88703 66,422.17732 66,419.22923 66,417.07792 69.356565,408 70.152011,408 c 0.375416,0 1.434292,2.1375 2.353059,4.75 4.130764,11.74577 3.629632,11.25 11.371763,11.25 8.875257,0 9.470696,1.43858 2.483454,6 -5.862586,3.82722 -6.899763,5.55136 -5.495343,9.13509 1.946799,4.96775 3.43459,10.89871 2.874468,11.45883 -0.321193,0.32119 -3.074742,-1.25604 -6.119,-3.50497 C 74.576155,444.84003 71.332428,443 70.41213,443 c -0.920299,0 -3.752014,1.48583 -6.2927,3.30186 -6.158833,4.40218 -6.75138,4.73286 -7.370848,4.11339 z M 1073,440.64079 C 1073,438.7763 1080.8503,430 1082.518,430 c 1.7525,0 8.482,8.2139 8.482,10.35299 0,2.17581 -1.1822,2.07815 -4.2729,-0.35299 -1.3984,-1.1 -3.3006,-2 -4.2271,-2 -0.9265,0 -2.8287,0.9 -4.2271,2 -2.9415,2.3138 -5.2729,2.59712 -5.2729,0.64079 z m -36,-30.05474 c -11.3929,-2.50438 -22.2092,-9.74811 -26.6904,-17.87476 -2.061,-3.73763 -4.6393,-12.71478 -3.8727,-13.48394 0.3988,-0.40004 5.411,-0.88074 11.1384,-1.06821 l 10.4134,-0.34087 1.7557,3.2386 c 3.3234,6.13068 7.139,9.67478 12.197,11.32919 9.2646,3.03028 24.5544,1.61133 31.471,-2.92065 5.5741,-3.65226 9.5545,-14.09974 9.5757,-25.13362 0.019,-9.80901 -0.3918,-10.07749 -6.6567,-4.35173 -8.4662,7.73766 -16.5872,11.02418 -27.2035,11.00912 -11.0341,-0.0157 -17.1334,-2.1128 -26.6608,-9.16683 -5.7585,-4.26359 -7.306,-5.9776 -10.7915,-11.95256 -5.2267,-8.95991 -6.1709,-13.31931 -6.1444,-28.36979 0.023,-13.05729 0.2166,-14.47136 2.8745,-21 3.4069,-8.36838 6.2882,-12.58468 12.4357,-18.19749 8.1453,-7.43675 18.2367,-11.32368 29.2296,-11.25838 12.1838,0.0724 18.9659,2.59856 26.8038,9.98395 2.4062,2.26723 4.7417,3.75091 5.1901,3.29707 0.4483,-0.45383 0.9546,-3.07515 1.1251,-5.82515 l 0.31,-5 11.25,-0.28275 11.25,-0.28275 -0.011,51.78275 c -0.011,54.11607 -0.021,54.25344 -4.4563,64.63611 -2.4258,5.67841 -10.1952,13.44736 -16.7645,16.76353 -3.1702,1.60033 -8.9444,3.57871 -12.8316,4.3964 -8.388,1.76448 -27.0639,1.80338 -34.9368,0.0728 z m 31.5,-60.89956 c 5.5767,-2.91028 10.647,-9.01743 12.9828,-15.63762 2.1566,-6.11245 1.9538,-22.1978 -0.3514,-27.87763 -5.3526,-13.18817 -19.474,-19.59647 -33.842,-15.35758 -6.4242,1.89527 -13.9003,9.41599 -16.314,16.41136 -2.7031,7.83414 -2.7003,20.76548 0.01,27.98747 2.4155,6.44575 8.966,13.37464 15.0602,15.93032 6.2871,2.6365 15.7973,2.01981 22.4583,-1.45632 z m -898.89135,39.73606 c -0.89378,-2.32917 -0.71277,-20.71032 0.21839,-22.17694 0.63239,-0.99604 23.64472,-1.20199 111.73469,-1 L 392.5,366.5 l 0,12 0,12 -111.14135,0.25433 c -100.70047,0.23045 -111.19852,0.10533 -111.75,-1.33178 z m -49.75763,-1.35286 C 112.28468,383.99457 105,378.89299 105,377.66927 c 0,-0.6981 0.39509,-1.69677 0.87798,-2.21927 0.4829,-0.5225 2.3564,-3.65 4.16335,-6.95 6.07295,-11.09091 7.15765,-12.96893 12.41794,-21.5 2.88262,-4.675 6.77103,-11.3375 8.64093,-14.80556 3.85346,-7.14696 3.61318,-6.7316 10.52538,-18.19444 2.81907,-4.675 6.96894,-11.875 9.22193,-16 2.253,-4.125 5.57674,-9.75 7.38609,-12.5 l 3.28973,-5 10.53487,-0.28177 10.53486,-0.28177 6.38793,5.12665 c 3.51336,2.81966 7.31742,5.53955 8.45347,6.04421 1.13605,0.50466 3.58695,1.83573 5.44645,2.95794 1.85951,1.12221 6.80951,3.169 11,4.54842 6.41324,2.1111 9.51829,2.50962 19.61909,2.51801 10.15715,0.008 13.17037,-0.37681 19.62106,-2.50868 11.45607,-3.78608 22.52821,-10.41006 29.31603,-17.53852 1.6154,-1.69647 3.4154,-3.06929 4,-3.0507 0.5846,0.0186 4.21291,2.93401 8.06291,6.47872 3.85,3.54472 7.3375,6.45451 7.75,6.46621 0.4125,0.0117 0.75,1.09998 0.75,2.41838 0,4.77181 -21.21186,20.87823 -34,25.81661 -12.6126,4.87058 -20.47897,6.24967 -35.5,6.22366 -20.75893,-0.0359 -34.92112,-4.01348 -49.97299,-14.03521 -7.41824,-4.93917 -8.09663,-5.19663 -9.75,-3.70036 -0.97736,0.8845 -1.77701,1.93162 -1.77701,2.32694 0,0.62165 -11.25684,20.77195 -13.95004,24.97126 -0.96726,1.50819 -17.19429,29.4087 -26.59676,45.73009 -2.77574,4.8183 -5.70074,8.88302 -6.5,9.03271 -0.79926,0.1497 -3.09524,-0.61221 -5.10218,-1.69311 z M 931,376.41966 C 915.98316,373.74674 907.32617,368.78941 898.83374,358 c -11.87357,-15.08504 -14.00319,-40.1722 -5.00592,-58.97015 6.12362,-12.79404 18.77207,-23.18242 32.7882,-26.92948 5.70804,-1.52598 19.2267,-1.37639 25.59853,0.28326 13.33682,3.47381 23.87123,11.92178 29.44903,23.61637 4.85461,10.17835 7.72454,27.53776 5.30124,32.06574 -0.99441,1.85806 -2.47176,1.93426 -37.5,1.93426 L 913,330 l 0,2.78839 c 0,3.79006 3.06926,12.22952 6.00668,16.51641 1.32641,1.93576 4.12858,4.63285 6.22704,5.99352 6.40067,4.15027 21.42346,4.70984 29.45936,1.09731 C 958.0065,354.90609 962,350.6124 962,348.53946 c 0,-0.65496 1.0415,-2.16927 2.31445,-3.36515 2.00207,-1.88084 3.453,-2.17224 10.75,-2.159 4.63955,0.008 9.05738,0.40915 9.81738,0.8905 3.18139,2.01492 -1.44356,13.28614 -8.45988,20.61715 -7.33643,7.66546 -17.51214,11.36079 -32.92195,11.95566 -5.5,0.21232 -11.125,0.18579 -12.5,-0.059 z m 31.24513,-67.79328 c -0.32089,-6.13599 -4.15064,-13.34379 -8.76997,-16.50556 -7.21353,-4.9374 -20.3062,-5.04699 -27.47854,-0.22999 C 919.64333,296.15775 914,305.54146 914,311.83878 l 0,2.19678 24.25,-0.26778 24.25,-0.26778 -0.25487,-4.87362 z M 1223.5,376.36948 c -11.4282,-1.77114 -20.0426,-5.94546 -28.2275,-13.67829 -6.2843,-5.93714 -9.3567,-10.95858 -12.3785,-20.23064 -3.172,-9.73303 -3.1495,-26.93952 0.048,-36.66883 5.4906,-16.70733 18.5862,-28.91313 35.8435,-33.40809 9.9673,-2.59613 26.7329,-1.31873 35.7146,2.72116 3.4948,1.57192 11.9442,7.2141 15.3858,10.27399 3.6536,3.24836 8.509,11.36194 11.4554,19.14243 2.3604,6.23319 2.6588,8.41938 2.6588,19.47879 0,11.04631 -0.3004,13.25298 -2.6517,19.47879 -6.1908,16.39179 -16.3887,26.23459 -32.2489,31.126 -4.8153,1.48509 -20.4495,2.56283 -25.5994,1.76469 z m 18.884,-19.5918 c 2.4945,-0.74078 5.9577,-3.05613 8.7908,-5.87716 5.7365,-5.71206 7.877,-11.82106 8.5493,-24.40052 1.0719,-20.05333 -6.7398,-33.08783 -21.7864,-36.35254 -10.5174,-2.28201 -21.1121,1.78539 -27.2193,10.4497 -5.6248,7.97991 -7.8275,20.19562 -5.7747,32.02471 2.1312,12.28116 6.9301,19.50633 15.5563,23.42142 4.7639,2.16215 15.8261,2.53338 21.884,0.73439 z m -611.95852,16.88873 c -0.28146,-0.73347 -0.37983,-5.12097 -0.21861,-9.75 L 630.5,355.5 l 63.38849,-0.25751 c 45.98962,-0.18682 63.7622,0.0527 64.75,0.87245 1.7626,1.46283 1.89492,15.95165 0.16151,17.68506 -1.85499,1.85499 -127.66166,1.72408 -128.37452,-0.13359 z m 187.03287,0.0836 c -0.26338,-0.6875 -0.36175,-23.525 -0.21861,-50.75 l 0.26026,-49.5 11,0 11,0 0.8393,7 c 0.46162,3.85 1.01867,7.18205 1.23789,7.40455 0.21922,0.22251 2.24854,-1.69711 4.50959,-4.2658 5.14034,-5.83973 11.789,-9.8036 18.9122,-11.27529 7.79847,-1.6112 8.12612,-1.14666 7.78435,11.03664 L 872.5,293.5 l -4,0.27329 c -12.01687,0.82104 -21.7515,6.53437 -25.67587,15.06937 -2.00609,4.363 -2.16459,6.54612 -2.5079,34.54348 -0.20156,16.43738 -0.60673,30.27488 -0.90037,30.75 -0.88613,1.43379 -21.39848,1.07306 -21.95751,-0.38614 z m 318.01305,0.034 c -0.2706,-0.7062 -0.3748,-23.55901 -0.2317,-50.78401 l 0.2603,-49.5 11,0 11,0 0,50.5 0,50.5 -10.7683,0.28402 c -8.0559,0.21247 -10.8923,-0.0394 -11.2603,-1 z m 166.987,-0.034 c -0.2634,-0.6875 -0.3618,-23.525 -0.2187,-50.75 l 0.2603,-49.5 11.5,0 11.5,0 0.2999,5.75 c 0.1759,3.372 0.7597,5.75 1.4116,5.75 0.6114,0 2.5015,-1.53518 4.2001,-3.4115 6.0833,-6.71972 15.9455,-10.56685 27.0884,-10.56685 18.7082,0 30.845,10.42793 34.3793,29.53855 1.602,8.66271 1.5339,71.62664 -0.079,73.2398 -1.6403,1.64034 -20.9597,1.64034 -22.6,0 -0.8867,-0.88674 -1.2,-10.16441 -1.2,-35.53984 0,-32.23534 -0.1212,-34.57737 -1.9774,-38.21578 -3.1886,-6.25031 -7.2397,-8.48546 -16.1186,-8.89327 -8.1584,-0.37472 -13.0208,1.25162 -18.1947,6.08563 -6.0865,5.68662 -6.1811,6.29932 -6.5226,42.23703 -0.2022,21.28393 -0.6887,33.42622 -1.3724,34.25 -1.4756,1.77801 -21.6758,1.80171 -22.3559,0.0262 z M 526,337.953 c -6.875,-4.90948 -13.0364,-8.93234 -13.692,-8.93967 -0.6556,-0.007 -6.43221,3.81167 -12.8369,8.48667 -6.4047,4.675 -12.05579,8.5 -12.558,8.5 -0.5022,0 -0.9131,-0.98178 -0.9131,-2.18173 0,-2.15499 4.31641,-15.79265 5.99627,-18.94516 1.76108,-3.30492 2.26082,-8.85841 0.94033,-10.4495 -0.70955,-0.85496 -6.12964,-4.94492 -12.04464,-9.0888 -5.915,-4.14389 -10.99634,-8.16445 -11.29187,-8.93458 -0.44631,-1.16306 2.0788,-1.40023 14.90824,-1.40023 15.33426,0 15.45726,-0.0179 17.06884,-2.47743 0.8928,-1.36258 1.97977,-3.95008 2.41549,-5.75 2.18967,-9.04533 8.09308,-24.12156 9.02795,-23.05574 0.60218,0.68652 4.19581,11.72827 8.18328,25.14385 0.89917,3.02522 2.04213,4.64711 3.7321,5.29596 1.33979,0.51441 8.53979,0.86501 16,0.77912 16.64162,-0.1916 17.35015,0.58954 6.85396,7.55637 -11.96458,7.94146 -17.74513,12.83979 -17.12083,14.50787 0.30876,0.825 0.91378,2.85 1.34448,4.5 0.43071,1.65 2.19258,7.48748 3.91529,12.97219 1.7227,5.4847 3.00594,10.52005 2.85164,11.18967 C 538.62271,346.34681 533.03242,342.97491 526,337.953 Z M 11.658701,344.25 c -0.252634,-0.4125 0.833034,-4.575 2.412595,-9.25 1.579561,-4.675 2.642762,-9.175 2.36267,-10 -0.280093,-0.825 -3.079819,-3.19497 -6.221613,-5.26659 C -1.9591098,311.70782 -1.8129219,311 12.016074,311 l 9.898041,0 3.151316,-10.21203 c 2.848496,-9.23073 3.283406,-10.03139 4.52592,-8.33215 0.756032,1.03393 2.356807,5.06685 3.557277,8.96203 1.20047,3.89518 2.600127,7.62886 3.110348,8.29706 0.583951,0.76476 4.475657,1.32055 10.503289,1.5 5.266587,0.1568 9.712953,0.73509 9.880813,1.28509 0.16786,0.55 -3.058162,3.38665 -7.168939,6.30366 -8.537149,6.05797 -8.676587,6.49143 -5.348986,16.628 3.233889,9.85111 2.259748,10.59791 -5.993649,4.59489 C 34.330517,337.26195 30.264088,335 29.094995,335 c -1.169093,0 -5.219093,2.25 -9,5 -7.176718,5.2199 -7.685351,5.47614 -8.436294,4.25 z M 351.5,328.23817 c -3.85,-6.43325 -8.30842,-14.18112 -9.90761,-17.2175 -1.59918,-3.03637 -5.10396,-9.12067 -7.7884,-13.52067 -2.68443,-4.4 -5.29008,-8.675 -5.79031,-9.5 -0.50023,-0.825 -2.35075,-4.2 -4.11226,-7.5 -1.76151,-3.3 -5.31246,-9.375 -7.89099,-13.5 -2.57853,-4.125 -5.81181,-9.525 -7.18506,-12 -1.37324,-2.475 -3.98732,-7.18286 -5.80906,-10.46191 -1.82175,-3.27905 -4.75321,-8.22905 -6.51437,-11 -2.94934,-4.6404 -5.84168,-9.71294 -12.28092,-21.53809 -1.34773,-2.475 -3.25363,-5.34233 -4.23533,-6.37183 -1.73995,-1.82469 -1.816,-1.81209 -3.01886,0.5 -1.70264,3.27275 -26.13428,45.51024 -32.17361,55.62183 -4.74789,7.94935 -6.88828,9.6385 -9.34322,7.3735 -0.5225,-0.48207 -2.975,-1.9993 -5.45,-3.37161 -9.53859,-5.28887 -10.98755,-6.29548 -10.99368,-7.63745 -0.003,-0.76206 3.745,-7.73706 8.32995,-15.5 4.58494,-7.76294 10.27419,-17.48944 12.64277,-21.61444 2.36857,-4.125 7.16725,-12.39431 10.66373,-18.37625 C 254.13925,196.64181 257,191.58456 257,191.3854 c 0,-0.19915 2.52246,-4.42068 5.60547,-9.38117 3.51298,-5.6523 6.40601,-9.21976 7.75,-9.5567 1.17949,-0.2957 5.91235,-0.40486 10.51746,-0.24258 l 8.37293,0.29505 7.2107,12 c 3.96589,6.6 9.91523,16.725 13.22076,22.5 3.30553,5.775 9.00539,15.61931 12.66637,21.87625 3.66097,6.25694 6.65631,11.53919 6.65631,11.73835 0,0.19915 2.40849,4.30484 5.35219,9.12375 2.9437,4.81891 9.76834,16.41165 15.16586,25.76165 5.39752,9.35 11.8289,20.375 14.29195,24.5 2.46306,4.125 5.32076,8.98925 6.35045,10.80945 1.02969,1.82019 3.66482,6.47298 5.85586,10.33953 2.19103,3.86655 3.98369,7.155 3.98369,7.30767 0,1.26169 -17.78175,11.46056 -20,11.47116 -0.85256,0.004 -4.52138,-5.04147 -8.5,-11.68964 z m 305,9.06223 c -17.28458,-1.85116 -28.52675,-15.06799 -28.48918,-33.49322 0.0274,-13.44908 7.81545,-25.84209 19.32209,-30.74705 5.74818,-2.45029 17.98147,-2.79082 24.07379,-0.67012 9.59955,3.34154 16.67263,12.80388 18.62704,24.9192 0.68686,4.25784 0.9238,8.06762 0.52653,8.46616 C 690.163,306.17392 679.63692,306.725 667.16898,307 l -22.66898,0.5 -0.32021,2.78924 c -0.45915,3.99955 3.22863,10.9224 7.04897,13.2326 2.50149,1.51269 5.01304,1.96811 10.67347,1.93544 l 7.40224,-0.0427 3.7776,-4.25682 c 3.77424,-4.25303 3.78321,-4.25655 10.09776,-3.95728 6.10129,0.28917 6.30832,0.38612 5.97805,2.79954 -0.37954,2.77343 -4.18796,8.29351 -8.10679,11.75033 -4.33253,3.82174 -16.01972,6.46377 -24.55109,5.55007 z m 17.52634,-40.83213 c 1.79468,-2.16247 -0.30642,-8.75682 -3.62079,-11.3639 -2.96946,-2.33578 -9.8801,-3.59833 -14.33727,-2.61937 -6.50848,1.4295 -13.77684,10.75139 -10.99576,14.10238 1.77481,2.13851 27.16684,2.03406 28.95382,-0.11911 z m 31.12709,39.64772 c -1.08376,-0.68684 -1.33251,-6.86582 -1.27454,-31.66015 0.0396,-16.94372 0.46749,-31.20222 0.95082,-31.68555 0.48334,-0.48334 3.53188,-0.74188 6.77454,-0.57454 L 717.5,272.5 l 0.5,3.81998 0.5,3.81998 4,-3.35238 C 728.15284,272.04996 731.13759,271 738.95255,271 c 11.11925,0 16.99759,4.24049 20.78239,14.99192 0.83876,2.38264 1.23978,10.7953 1.25,26.2229 C 761.00183,337.6865 761.20915,337 753.5,337 c -7.61285,0 -7.5,0.32967 -7.5,-21.91018 0,-22.6209 -0.32327,-25.14037 -3.65302,-28.47011 -4.53114,-4.53115 -14.86293,-4.17591 -19.4209,0.66774 -4.35132,4.62405 -4.92608,7.9067 -4.92608,28.13467 0,13.5828 -0.3501,19.52798 -1.2,20.37788 -1.37211,1.37211 -9.62672,1.59607 -11.64657,0.31599 z m 229.3109,-76.17371 c -0.37063,-0.59968 0.27328,-2.09853 1.4309,-3.33076 2.98341,-3.17569 2.62437,-5.36241 -1.14523,-6.97494 -1.7875,-0.76464 -4.56703,-2.79081 -6.17673,-4.5026 -2.37204,-2.52248 -2.94061,-4.03279 -3,-7.96895 -0.0939,-6.22331 1.82434,-9.7277 6.97791,-12.74789 4.75202,-2.78487 6.88502,-2.96994 11.5767,-1.00446 11.03667,4.62359 12.78672,19.27747 3.5065,29.36135 -2.16337,2.35072 -5.55362,5.01389 -7.53389,5.91815 -1.98027,0.90427 -3.9069,1.8008 -4.28139,1.99229 -0.3745,0.19148 -0.98414,-0.1425 -1.35477,-0.74219 z m 204.64377,-5.60197 c -2.2928,-1.16775 -4.0307,-3.17167 -5.3632,-6.1842 -1.7069,-3.85874 -1.8118,-4.98953 -0.7814,-8.42859 3.2778,-10.9405 16.4717,-13.69056 24.0845,-5.02005 2.424,2.76082 2.952,4.25276 2.952,8.34201 0,4.25032 -0.4886,5.51307 -3.3352,8.61927 -2.9073,3.17233 -4.0302,3.68813 -8.75,4.01924 -3.7755,0.26487 -6.4417,-0.14313 -8.8067,-1.34768 z M 21.538666,231.67272 c 0.364996,-1.745 1.708696,-6.54772 2.986,-10.67272 1.277304,-4.125 2.582573,-8.41943 2.900599,-9.54318 0.616624,-2.17886 -2.690126,-5.1016 -14.655068,-12.95318 -3.1513923,-2.06799 -5.4873347,-4.1523 -5.1909834,-4.63181 C 7.8755648,193.39232 13.405468,193 19.867887,193 c 12.610804,0 14.511553,-0.61647 15.416357,-5 0.283814,-1.375 1.398987,-4.79908 2.478162,-7.60907 1.079175,-2.80999 2.274768,-6.77555 2.656874,-8.81235 0.808882,-4.31171 3.465269,-4.64341 4.633464,-0.57858 3.820626,13.2942 6.450206,20.1988 8.010652,21.03393 0.992816,0.53134 6.934705,0.96607 13.204196,0.96607 6.269491,0 11.684747,0.28567 12.033903,0.63483 0.349155,0.34915 -3.87765,3.7572 -9.392901,7.57344 -5.515251,3.81624 -10.262975,7.55166 -10.550497,8.30093 -0.287522,0.74927 0.473845,4.42872 1.691925,8.17655 5.15239,15.85307 5.094559,15.60686 3.846977,16.37791 -0.709137,0.43827 -4.968314,-2.05426 -10.532754,-6.16392 C 48.226047,224.10488 43.435809,221 42.719272,221 c -0.716538,0 -5.087233,2.89624 -9.712657,6.43609 -4.625425,3.53986 -9.247249,6.65508 -10.27072,6.92272 -1.617947,0.42311 -1.77423,0.0725 -1.197229,-2.68609 z m 434.315424,-0.15196 c -0.26744,-0.26745 0.83506,-4.43152 2.45001,-9.25351 6.45558,-19.27541 8.6423,-27.62691 7.57152,-28.91712 -0.57431,-0.69201 -7.52647,-5.89138 -15.44923,-11.55416 C 442.50362,176.13319 436.1662,171.05 436.34322,170.5 c 0.19552,-0.60747 7.78369,-1.10639 19.3316,-1.27104 C 477.14235,168.92288 475.2999,169.6713 478.39423,160 482.64584,146.71165 486,135.08646 486,133.63916 486,132.73762 486.38026,132 486.84501,132 c 1.29443,0 4.15499,3.48193 4.15499,5.05753 0,0.77002 1.07224,4.33459 2.38274,7.92126 1.31051,3.58666 3.35261,9.62024 4.538,13.40794 3.63323,11.60939 1.51627,10.61327 22.55543,10.61327 12.67239,0 18.62473,0.35424 19.10863,1.13721 0.76668,1.24051 -0.93885,2.77627 -10.0848,9.08101 -3.3,2.27485 -9.25395,6.52826 -13.23099,9.45203 l -7.231,5.31594 2.35858,6.7569 c 1.29721,3.7163 3.79574,11.48191 5.55228,17.25691 1.75654,5.775 3.37251,11.0625 3.59103,11.75 0.59348,1.86709 -2.88134,1.508 -5.10134,-0.52716 -2.78174,-2.55015 -22.49986,-16.72448 -25.27727,-18.17052 -2.52779,-1.31609 -4.50716,-0.17483 -21.66129,12.4894 -9.07717,6.70133 -12.04871,8.57624 -12.64591,7.97904 z m 286.55398,-22.95201 c -5.11092,-2.32467 -8.02859,-5.47698 -10.25641,-11.08124 -0.8199,-2.06252 -1.11147,-9.00004 -0.9246,-22 L 731.5,156.5 l 5.5,0 5.5,0 0.5,18.54731 c 0.42128,15.62724 0.78375,18.97985 2.3023,21.29464 3.69419,5.63121 12.04034,5.80521 16.10187,0.33567 1.90221,-2.56164 2.14202,-4.54786 2.59583,-21.5 l 0.5,-18.67762 5.40535,-0.30765 c 3.64725,-0.20758 5.6751,0.11767 6.23469,1 1.52094,2.39813 0.99476,30.86918 -0.69022,37.34755 -3.63896,13.99096 -18.88938,20.46598 -33.04175,14.02885 z m 110.24213,0.8078 c -8.9626,-3.23676 -14.99893,-9.73638 -17.3074,-18.63578 -1.64624,-6.34641 -1.68231,-9.48661 -0.17859,-15.54795 6.44121,-25.96384 45.73181,-27.12518 53.42009,-1.57898 5.71564,18.99164 -7.85112,37.70997 -27.01244,37.2696 -2.78952,-0.0641 -6.80427,-0.74221 -8.92166,-1.50689 z m 17.32635,-11.19446 c 6.72224,-4.98184 8.91109,-15.61259 5.063,-24.58983 -2.40636,-5.61379 -6.84557,-8.58331 -12.83921,-8.58852 -8.19659,-0.007 -12.17738,3.67772 -14.08336,13.03637 -0.88169,4.32922 -0.81751,6.55877 0.3099,10.76629 1.72731,6.44637 2.91075,7.96776 8.07312,10.37847 4.65625,2.17437 9.69542,1.79941 13.47655,-1.00278 z m 162.28265,11.1587 c -4.9798,-1.76295 -10.8509,-8.10545 -11.4817,-12.40369 -0.238,-1.62167 -0.2103,-3.17092 0.062,-3.44279 0.2719,-0.27187 2.6249,-0.49431 5.2289,-0.49431 4.3425,0 4.904,0.28714 6.7805,3.4677 2.2345,3.78707 4.8149,4.84174 10.6476,4.35189 5.126,-0.43051 8.4187,-4.51671 6.6924,-8.30543 -1.3451,-2.95225 -3.0303,-3.72289 -13.0565,-5.97081 C 1025.3812,183.90878 1022,180.47979 1022,171.19754 c 0,-9.4802 7.8058,-16.0734 19.1279,-16.15632 9.1596,-0.0671 15.4656,3.28608 18.9244,10.06289 2.3301,4.56534 1.198,5.89818 -5.0023,5.88957 -3.9684,-0.006 -4.7602,-0.37585 -6.1946,-2.8974 -3.0179,-5.30521 -12.6631,-5.38898 -14.8419,-0.12891 -2.307,5.56963 0.3036,7.43928 14.0118,10.03492 7.2036,1.36399 11.7496,4.21473 13.5349,8.48749 6.5461,15.66704 -10.9816,29.33641 -29.301,22.85101 z m 175.922,-0.0833 c -5.9351,-2.04809 -13.2246,-9.59136 -15.4312,-15.96848 -3.4908,-10.0882 -1.4806,-21.49616 5.138,-29.15932 6.5362,-7.56766 17.9111,-11.11444 27.5737,-8.59765 8.7572,2.28098 12.1994,4.91726 15.5023,11.87296 2.5507,5.37159 1.8087,6.59501 -3.9996,6.59501 -4.8509,0 -7.9644,-1.74215 -7.9644,-4.45642 0,-2.40979 -4.7528,-4.54358 -10.1204,-4.54358 -7.2827,0 -11.2915,3.16913 -13.4646,10.64451 -3.0076,10.34574 -0.098,20.3799 6.8681,23.68553 6.805,3.22917 14.3536,1.48911 18.3612,-4.23253 2.4347,-3.47609 1.0831,-4.95364 -4.8422,-5.29344 L 1220.5,189.5 l 0,-4 0,-4 11.5,0 11.5,0 -0.1332,7.19302 c -0.1532,8.27023 -2.1388,12.41962 -8.1748,17.08354 -6.7366,5.20521 -17.86,6.6387 -27.0108,3.48092 z m 108.7486,0.38767 c -7.0177,-2.25089 -12.738,-7.27741 -16.0268,-14.08298 -2.7294,-5.64779 -2.6769,-19.60441 0.094,-25.10073 2.9535,-5.8579 7.8121,-10.44524 13.9712,-13.19136 13.1746,-5.87399 30.2221,-0.33011 33.6855,10.95452 1.4127,4.60304 0.3305,5.7754 -5.331,5.7754 -3.5849,0 -4.5535,-0.44499 -5.9856,-2.75 -2.9267,-4.71036 -5.4776,-6.20386 -10.6372,-6.22776 -6.0256,-0.0279 -9.8959,1.94018 -12.6827,6.44929 -1.7574,2.84346 -2.1755,5.05117 -2.1755,11.4863 0,9.42962 1.7444,13.25009 7.3681,16.13734 7.1333,3.66233 16.5552,1.28222 18.8535,-4.76266 1.2743,-3.35168 0.01,-4.2962 -5.7946,-4.3172 -3.6395,-0.0132 -4.3162,-0.35472 -4.8403,-2.44314 -0.3352,-1.3353 -0.3134,-3.3603 0.048,-4.5 0.6148,-1.93704 1.4032,-2.07217 12.0903,-2.07217 l 11.4326,0 -0.022,6.25 c -0.014,3.90863 -0.7163,7.77881 -1.8754,10.33098 -2.0899,4.60161 -8.8212,10.40089 -14.1736,12.21122 -4.3584,1.47413 -13.1693,1.40215 -17.9992,-0.14705 z m -685.82479,-1.01862 c -0.80327,-0.96789 -1.06091,-8.86721 -0.87245,-26.75 L 630.5,156.5 l 6,0 6,0 0.5,21.5 0.5,21.5 9.44588,0.29012 c 5.19523,0.15956 10.03273,0.77716 10.75,1.37244 1.63524,1.35713 1.69911,6.04245 0.10412,7.63744 -1.82323,1.82323 -31.16709,1.66754 -32.69499,-0.17347 z M 686.63029,207.75 c -0.9098,-3.39488 -0.72047,-49.05965 0.20947,-50.52497 0.61533,-0.96958 4.86343,-1.20911 17.73469,-1 L 721.5,156.5 l 0,4 0,4 -11,0.5 -11,0.5 0,6 0,6 8.5,0.5 8.5,0.5 0.30703,3.69399 c 0.28955,3.48381 0.11886,3.72566 -3,4.25068 -1.81887,0.30619 -5.78203,0.66889 -8.80703,0.80601 l -5.5,0.24932 0,6 0,6 11.23914,0.28265 c 11.01333,0.27697 11.25159,0.33222 11.85841,2.75 0.3406,1.35704 0.33691,3.59235 -0.008,4.96735 l -0.62746,2.5 -17.36432,0 c -17.16211,0 -17.37134,-0.0262 -17.96729,-2.25 z m 100.84087,1.03543 c -0.27857,-0.72592 -0.38603,-12.78711 -0.23882,-26.80264 L 787.5,156.5 802,156.5131 c 14.9204,0.0135 16.81236,0.45671 21.67568,5.0782 1.48598,1.41208 4.32432,8.13814 4.32432,10.2474 0,3.77892 -3.27631,9.81197 -6.54469,12.0515 -1.92235,1.31721 -3.45531,3.22103 -3.45531,4.29122 0,1.05798 2.475,5.64309 5.5,10.18913 7.11267,10.6891 7.1119,11.62946 -0.01,11.62946 -6.15345,0 -5.435,0.67768 -14.84214,-14 -4.97786,-7.7668 -8.19626,-9.11549 -9.09691,-3.81209 -0.30937,1.82165 -0.6725,6.46209 -0.80696,10.31209 l -0.24449,7 -5.26118,0.30265 c -3.66186,0.21064 -5.41515,-0.0986 -5.76766,-1.01722 z m 25.7001,-30.44042 c 2.8838,-2.6098 2.44733,-8.71327 -0.80612,-11.27243 -3.56014,-2.80041 -10.86141,-2.88232 -12.32996,-0.13832 -1.14371,2.13704 -1.33822,7.33303 -0.40489,10.81574 0.53354,1.99092 1.24257,2.25 6.1576,2.25 3.76532,0 6.14372,-0.53312 7.38337,-1.65499 z m 86.27969,30.38778 c -0.26745,-0.69697 -0.36582,-12.73447 -0.21861,-26.75 L 899.5,156.5 l 13.5,0 c 14.85831,0 18.02951,0.96618 22.39547,6.82333 3.00177,4.02702 3.01234,15.3141 0.0181,19.32456 -3.12236,4.18205 -10.63128,7.51704 -17.79068,7.9015 l -6.12289,0.3288 -0.25303,7.3109 C 910.84215,209.88569 910.7812,210 904.94956,210 c -3.12369,0 -5.19556,-0.47749 -5.49861,-1.26721 z m 23.91419,-29.80537 c 3.53887,-2.78368 3.62136,-8.03183 0.18031,-11.47287 C 921.58804,165.49713 920.06902,165 916.04545,165 L 911,165 l 0,8 0,8 4.86514,0 c 3.40774,0 5.65444,-0.62086 7.5,-2.07258 z m 23.09491,29.82908 c -0.27245,-0.71001 -0.37492,-12.75818 -0.22771,-26.77371 L 946.5,156.5 l 17,0 17,0 0,4 0,4 -9.94399,0.28855 c -5.46919,0.15871 -10.53169,0.77631 -11.25,1.37245 -1.63833,1.35969 -1.71476,9.03025 -0.10601,10.639 0.71309,0.71309 4.14774,1.2 8.46482,1.2 6.15905,0 7.42238,0.29441 8.3,1.93426 2.5998,4.85777 -0.16143,7.06574 -8.83625,7.06574 -3.9,0 -7.23303,0.50446 -7.92857,1.2 -1.60961,1.60961 -1.53194,9.27963 0.10775,10.64045 0.71927,0.59694 6.00677,1.21454 11.75,1.37244 L 981.5,200.5 l 0,4.5 0,4.5 -17.27229,0.27371 c -13.38735,0.21215 -17.3837,-0.0166 -17.76766,-1.01721 z m 146.76265,0.0662 c -1.4135,-1.41341 -1.7693,-49.41314 -0.3825,-51.59827 0.6146,-0.9685 4.7639,-1.20926 17.2346,-1 L 1126.5,156.5 l 0,4 0,4 -9,0.2498 c -13.6357,0.37847 -13.5,0.31149 -13.5,6.66226 0,6.39981 0.2991,6.58794 10.4734,6.58794 6.979,0 7.3384,0.11406 7.9424,2.52052 1.2719,5.06787 -0.6119,6.36975 -9.6795,6.68926 L 1104.5,187.5 l 0,6 0,6 10,0.24808 c 14.463,0.35879 14.6754,0.44096 14.3059,5.535 L 1128.5,209.5 l -17.0273,0.27266 c -12.3992,0.19854 -17.3597,-0.0597 -18.25,-0.95 z m 44.2283,-0.0899 c -0.2675,-0.69697 -0.3659,-12.73447 -0.2187,-26.75 L 1137.5,156.5 l 6.7062,-0.29469 6.7063,-0.29469 2.4031,3.79469 c 3.557,5.61653 7.7204,12.68753 11.8697,20.15881 2.0269,3.64974 4.0519,6.52467 4.5,6.38875 0.4481,-0.13593 0.9404,-6.40577 1.0941,-13.93298 0.1698,-8.31626 0.7239,-14.22146 1.4124,-15.05102 0.734,-0.88435 2.7488,-1.26017 5.7206,-1.06703 l 4.5876,0.29816 0,26.5 0,26.5 -5.6675,0.29744 c -4.9562,0.26011 -5.8718,0.009 -7.295,-2 -2.738,-3.8652 -17.5375,-28.84903 -17.5375,-29.60597 0,-0.39071 -0.9,-1.27244 -2,-1.9594 -1.9686,-1.22939 -2,-0.99869 -2,14.67767 0,8.75968 -0.2731,16.63849 -0.607,17.50847 -0.7592,1.97841 -9.2011,2.24551 -9.942,0.31458 z m 109.9106,-0.23276 c -0.4891,-1.27476 3.1415,-13.41785 12.851,-42.98104 3.2192,-9.80193 2.8837,-9.51899 11.2874,-9.51899 6.0623,0 7.5972,0.32206 8.3401,1.75 2.2639,4.35119 16.1599,47.89681 16.1599,50.63978 0,1.28493 -1.11,1.61022 -5.4949,1.61022 l -5.4949,0 -1.8969,-4.25 c -1.0433,-2.3375 -2.1565,-5.0375 -2.4737,-6 -0.4953,-1.50258 -1.9134,-1.75 -10.0307,-1.75 l -9.4538,0 -1.189,3.75 c -2.1435,6.76043 -3.5916,8.25 -8.0205,8.25 -2.6405,0 -4.2048,-0.51188 -4.584,-1.49997 z m 28.3157,-20.57729 c 0.7376,-0.73759 0.7728,-2.23533 0.1116,-4.75 -0.5311,-2.02001 -1.4647,-5.81024 -2.0747,-8.42274 -1.7833,-7.63709 -3.8898,-6.30238 -6.7075,4.25 -0.6609,2.475 -1.6002,5.26935 -2.0874,6.20966 -0.6351,1.22572 -0.3952,1.99555 0.8474,2.7196 2.3109,1.34647 8.5617,1.34236 9.9106,-0.007 z M 1361.2,208.8 c -0.8673,-0.86727 -1.2,-7.91516 -1.2,-25.41821 0,-13.32002 0.2731,-24.93002 0.607,-25.8 0.5189,-1.35227 2.9566,-1.58179 16.8,-1.58179 17.0515,0 18.593,0.37951 18.593,4.57756 0,3.5578 -2.0931,4.33028 -12.556,4.63389 l -9.944,0.28855 0,6 0,6 8.5,0.5 8.5,0.5 0.307,3.69399 c 0.2896,3.48381 0.1189,3.72566 -3,4.25068 -1.8188,0.30619 -5.782,0.66889 -8.807,0.80601 l -5.5,0.24932 0,6 0,6 10.4422,0.28711 c 5.7433,0.1579 11.0308,0.7755 11.75,1.37244 1.6383,1.35963 1.7044,6.04389 0.1078,7.64045 -0.834,0.83395 -6.1111,1.2 -17.3,1.2 -11.1889,0 -16.466,-0.36605 -17.3,-1.2 z M 667.625,162.20225 c -0.27117,-0.43876 -0.10091,-1.43221 0.37835,-2.20768 0.62487,-1.01105 -0.24251,-2.36339 -3.06598,-4.78017 C 661.62515,152.37926 661,151.23555 661,148.01097 c 0,-3.0527 0.62646,-4.36031 3.07673,-6.42208 3.51432,-2.95711 5.81324,-3.21427 9.88964,-1.10628 6.32358,3.27005 5.96306,13.73813 -0.67384,19.56541 -3.4538,3.03248 -4.80689,3.54679 -5.66753,2.15423 z M 1073,161.76739 c 0,-0.75207 0.4906,-1.85797 1.0902,-2.45758 0.7869,-0.78692 0.2115,-1.60755 -2.0685,-2.95 -4.5268,-2.6654 -6.6319,-7.47252 -4.9987,-11.41527 1.3325,-3.21713 5.4638,-5.94454 9.0043,-5.94454 3.5256,0 7.9727,5.27395 7.9727,9.4552 0,6.64728 -3.6152,12.42913 -8.75,13.99391 -1.5706,0.47864 -2.25,0.2728 -2.25,-0.68172 z M 87,143.48643 c 0,-1.38246 0.414692,-3.29496 0.921537,-4.25 1.844287,-3.47515 7.255604,-22.07762 6.921638,-23.79449 C 94.654429,114.47161 89.325,109.88681 83,105.25348 76.675,100.62015 71.354504,96.192666 71.176676,95.414623 70.909034,94.243625 73.43677,94 85.854096,94 l 15.000744,0 2.07258,-2.634859 C 104.06734,89.915969 105,87.884863 105,86.851572 c 0,-1.03329 0.44033,-2.660104 0.97851,-3.615141 0.53818,-0.955037 1.91846,-4.954343 3.0673,-8.887347 2.00753,-6.872676 4.29707,-11.39484 5.23888,-10.347512 0.24652,0.274136 2.37071,6.573428 4.72043,13.998428 2.34972,7.425 4.97082,14.0625 5.82468,14.75 1.08605,0.87446 6.02355,1.25 16.43465,1.25 12.32879,0 14.82672,0.243198 14.55887,1.417445 C 155.6455,96.19704 150.325,100.61729 144,105.24023 c -13.61736,9.95291 -13.3585,9.05479 -7.65436,26.55737 3.58089,10.98758 4.26952,14.2024 3.04222,14.2024 -0.33667,0 -6.00885,-4.05 -12.60484,-9 -6.59599,-4.95 -12.57335,-9 -13.28302,-9 -0.70967,0 -6.68703,4.05 -13.28302,9 -6.595988,4.95 -12.268167,9 -12.604843,9 C 87.275462,146 87,144.86889 87,143.48643 Z m 330.8275,-15.84518 c -2.56988,-1.72769 -11.25432,-8.00247 -19.29876,-13.94396 l -14.62626,-10.80271 -14.51792,10.80271 C 353.44717,125.55622 347.01825,130 345.79907,130 c -1.51592,0 -0.775,-2.87484 6.0504,-23.4762 7.96802,-24.050142 8.58114,-20.790975 -5.84947,-31.093886 -5.225,-3.730452 -12.94703,-9.246935 -17.16007,-12.258851 -11.62195,-8.308573 -11.0938,-8.581182 15.32862,-7.911981 19.41534,0.491732 22.04751,0.369207 23.69422,-1.102948 1.71603,-1.534126 2.83147,-4.726305 9.83858,-28.156134 3.51,-11.736469 5.44805,-17 6.25947,-17 0.66741,0 10.28672,28.437446 11.67004,34.5 0.37649,1.65 1.49757,4.9125 2.49129,7.25 l 1.80678,4.25 22.92854,0 c 27.03543,0 27.69567,0.283045 17.32697,7.428099 C 424.11808,73.499402 410,84.246394 410,85.40516 c 0,1.38157 6.32148,22.53872 10.4592,35.00555 1.44405,4.35089 2.49398,8.46445 2.33317,9.14125 -0.18885,0.79484 -1.94678,0.11831 -4.96487,-1.91071 z m 974.7289,0.45 c -0.32,-0.51776 -0.163,-1.9876 0.349,-3.26631 2.717,-6.78676 7.0648,-22.73906 6.5577,-24.06054 -0.3221,-0.839241 -5.495,-5.018571 -11.4954,-9.287398 -6.0005,-4.268828 -10.6713,-8.147492 -10.3798,-8.619254 C 1377.8795,82.385987 1384.3799,82 1392.0333,82 l 13.9153,0 1.3883,-2.75 c 0.7635,-1.5125 2.5977,-6.8 4.0759,-11.75 3.4915,-11.691581 4.4872,-14.0098 5.542,-12.902126 0.4724,0.496169 2.7331,6.52051 5.0238,13.387424 2.2906,6.866914 4.695,12.822523 5.3431,13.234687 0.6481,0.412164 7.1142,0.75628 14.3693,0.764702 7.255,0.0084 13.4332,0.407197 13.7292,0.886166 0.296,0.478968 -4.6274,4.555213 -10.941,9.058321 -6.3136,4.503107 -11.4792,8.747936 -11.4792,9.432956 0,0.68502 1.8141,6.80972 4.0312,13.61044 2.2585,6.9273 3.6521,12.74417 3.1689,13.22728 -0.4831,0.48311 -5.583,-2.66944 -11.597,-7.16876 -5.9042,-4.4171 -11.28,-8.03109 -11.9464,-8.03109 -1.1165,0 -5.4906,2.60696 -6.6567,3.96737 -0.601,0.70116 -14.0026,10.4384 -15.6809,11.39333 -0.6495,0.36956 -1.4427,0.2483 -1.7627,-0.26945 z M 198,100.80651 c 0,-1.343624 3.81909,-14.057217 8.03963,-26.763579 1.92719,-5.802008 2.52475,-8.988381 1.90337,-10.149436 -0.49815,-0.930801 -3.72661,-3.614743 -7.17436,-5.964316 -3.44775,-2.349573 -9.0727,-6.417744 -12.49989,-9.040382 -3.42719,-2.622637 -6.98421,-5.189808 -7.90449,-5.704824 -0.99854,-0.55881 -1.42542,-1.5822 -1.05866,-2.537971 0.52804,-1.376061 3.25465,-1.639908 19.36378,-1.87379 L 217.41858,38.5 218.62804,35 c 0.66521,-1.925 3.33653,-10.153166 5.93627,-18.284813 2.72508,-8.5236604 5.18827,-14.6309935 5.81648,-14.4215916 1.07065,0.3568853 3.6717,7.3528689 7.14078,19.2064046 3.83122,13.090922 4.86739,16.029144 5.90155,16.734687 0.59229,0.404078 9.51438,0.741578 19.82688,0.75 21.23738,0.01734 22.31388,0.490701 14,6.156018 C 272.77004,48.193475 265.09712,53.902883 264,55 c -0.275,0.275 -3.0875,2.2423 -6.25,4.371777 -3.1625,2.129478 -5.75,4.602944 -5.75,5.496591 0,1.508569 1.93274,8.008347 7.17567,24.131632 3.50036,10.764457 3.84995,12.94706 1.95744,12.22084 -0.89145,-0.34208 -7.99812,-5.256714 -15.79261,-10.921404 C 237.54601,84.634746 230.64946,80 230.01484,80 c -0.63463,0 -4.83508,2.838747 -9.33435,6.308326 C 211.16446,93.646544 199.39438,102 198.57081,102 198.25686,102 198,101.46293 198,100.80651 Z"
       id="path4142"
       inkscape:connector-curvature="0" />
    <path
       style="fill:#194798"
       d="m 830.31114,499.86794 c -4.53344,-2.19955 -7.79033,-6.17679 -6.91851,-8.44873 0.89029,-2.32007 4.33052,-1.62243 7.55819,1.53272 1.66088,1.62356 4.64481,3.25679 6.63094,3.62939 4.74004,0.88923 11.02996,-1.0591 12.96799,-4.0169 1.9611,-2.99302 2.98369,-9.1167 1.65911,-9.93534 -0.55637,-0.34385 -2.96846,0.49352 -5.36022,1.86082 -2.39175,1.36731 -5.53118,2.49143 -6.97652,2.49805 -7.52017,0.0345 -16.35885,-7.38244 -17.44731,-14.64079 C 820.36652,458.62151 828.05162,448 840.041,448 c 3.35534,0 6.34996,0.58483 7.51787,1.4682 2.51635,1.90327 4.21755,1.89824 6.13394,-0.0182 0.85247,-0.85247 2.28283,-1.4091 3.17857,-1.23696 1.4319,0.27519 1.66127,2.81904 1.89894,21.06032 0.28988,22.24854 -0.23157,25.16651 -5.13354,28.72659 -6.01354,4.36736 -16.45136,5.20323 -23.32564,1.86794 z m 15.379,-19.90977 c 5.74416,-2.00242 9.32809,-13.171 6.1849,-19.27391 C 849.12576,455.34619 846.91836,454 840.91458,454 c -5.1357,0 -5.99905,0.31168 -8.23975,2.9746 -3.70498,4.40311 -4.9968,9.11898 -3.75569,13.71031 2.41572,8.93667 8.33991,12.21236 16.771,9.27326 z m 435.97656,20.37516 C 1281.3,499.96667 1281,488.25254 1281,474.30195 c 0,-28.10417 0.1671,-28.7725 6.0985,-24.38726 l 2.9541,2.18406 2.8781,-2.04938 c 3.5627,-2.53686 10.8411,-2.72601 15.7246,-0.40864 11.0062,5.22279 13.4669,24.23711 4.3202,33.38378 -4.7345,4.73444 -11.2618,6.68038 -16.6396,4.96059 -2.1097,-0.67469 -4.2634,-1.62234 -4.7859,-2.1059 -2.5457,-2.35595 -3.55,-0.78892 -3.55,5.53901 0,3.53002 -0.2731,7.13002 -0.607,8 -0.6036,1.57295 -4.4533,2.18817 -5.7263,0.91512 z m 26.4298,-19.95831 c 3.7407,-3.29717 5.0191,-14.25395 2.2955,-19.67468 -2.504,-4.98386 -5.2422,-6.65301 -10.9549,-6.6781 -4.3587,-0.0192 -5.4714,0.40408 -8,3.04275 -2.7689,2.88951 -2.9371,3.54174 -2.9371,11.39222 0,9.32035 1.2777,11.81158 6.9187,13.48966 3.8249,1.13785 10.5495,0.30412 12.6778,-1.57185 z m -620.00805,6.82695 C 681.20771,483.76927 680.5,481.6795 680.5,464.7943 c 0,-12.96547 0.23187,-15.20879 1.66618,-16.11991 1.21433,-0.77138 2.09569,-0.70195 3.25,0.25604 C 686.71722,450.0102 687,452.63965 687,463.65763 687,480.3418 687.73956,482 695.18075,482 705.12557,482 707,478.66971 707,461.00073 c 0,-9.84576 0.2781,-12.17022 1.51273,-12.64399 0.83201,-0.31927 2.19192,-0.0168 3.02202,0.6721 1.26289,1.04811 1.46487,4.19125 1.23726,19.25398 -0.24561,16.25462 -0.45086,18.1089 -2.11516,19.10929 -1.50238,0.90306 -2.11637,0.70611 -3.32092,-1.06522 l -1.47777,-2.17311 -4.82431,2.42311 c -5.63484,2.83022 -8.27019,2.95747 -12.9454,0.62508 z m 81.72912,0.61132 c -4.98863,-1.32763 -10.24313,-6.67918 -12.20159,-12.42693 -2.09127,-6.13754 -2.03724,-8.18542 0.3869,-14.66452 C 761.28798,451.94164 766.6423,448 775.28422,448 c 4.42251,0 6.1702,0.54656 9.52987,2.98028 4.9413,3.57947 6.88995,7.04836 7.32529,13.04013 l 0.32546,4.47959 -13.97082,0.5 c -15.18107,0.54331 -15.53683,0.70896 -14.07047,6.55142 1.86896,7.44652 15.81184,9.84062 20.267,3.48 1.70035,-2.4276 7.30945,-2.86098 7.30945,-0.56475 0,2.45636 -6.39762,8.03628 -10.68761,9.32159 -4.63083,1.38743 -6.36136,1.3912 -11.49482,0.025 z m 14.52186,-24.39005 c 2.10598,-0.80814 0.28015,-5.79071 -3.09476,-8.44542 -4.05018,-3.18587 -12.59096,-1.15065 -15.81405,3.76841 -2.85336,4.35478 -1.40639,5.25377 8.45621,5.25377 4.92228,0 9.62595,-0.25954 10.4526,-0.57676 z M 922.09258,487.7081 C 916.5861,485.95032 911.42672,480.28275 909.61364,474 908.21543,469.1549 908.19447,467.86814 909.4376,463.19353 912.07844,453.26307 918.33529,448 927.5,448 c 9.56772,0 16.07523,6.09553 16.68741,15.63097 L 944.5,468.5 l -14,0.5 -14,0.5 -0.29562,2.53442 c -0.16526,1.41679 0.72295,4.04588 2.01416,5.9619 4.00337,5.9406 13.34133,6.35333 19.59115,0.86591 3.6661,-3.21888 5.52681,-3.30221 5.97921,-0.26778 0.40113,2.69052 -5.36693,7.8126 -10.40492,9.23965 -4.82468,1.36663 -6.68042,1.34593 -11.2914,-0.126 z M 938,461.63636 c 0,-1.3 -1.18636,-3.55 -2.63636,-5 -3.59916,-3.59915 -11.94316,-3.81315 -15.06436,-0.38636 -2.68183,2.9444 -4.39049,6.32546 -3.59743,7.11852 C 917.04917,463.71583 921.98333,464 927.66667,464 937.86325,464 938,463.96872 938,461.63636 Z m 138.2096,26.1053 c -9.8121,-3.14354 -15.6593,-16.14916 -12.068,-26.84244 1.3952,-4.15424 3.1893,-6.33657 8.2584,-10.04562 3.3079,-2.4203 4.8525,-2.8536 10.1723,-2.8536 5.5429,0 6.7636,0.37792 10.498,3.25 5.9882,4.60553 7.9297,8.77608 7.9297,17.03406 0,10.45376 -4.3229,16.73984 -13.3762,19.45076 -4.8203,1.44337 -6.9264,1.44463 -11.4142,0.007 z m 14.1167,-7.53692 c 3.1421,-2.84362 4.6737,-6.84835 4.6737,-12.22082 0,-9.07105 -4.346,-13.90937 -12.5,-13.91615 -8.3863,-0.007 -12.483,4.79603 -12.4934,14.64743 -0.01,5.5064 0.341,6.61112 3.0415,9.68675 1.6764,1.90935 4.0389,3.68263 5.25,3.94062 3.6952,0.78719 10.0426,-0.34096 12.0282,-2.13783 z m 71.2955,7.38432 c -4.9744,-1.54074 -10.1787,-7.23123 -11.6687,-12.75871 -1.5063,-5.58769 -0.4915,-14.22307 2.179,-18.54415 3.5003,-5.66357 8.3903,-8.2862 15.45,-8.2862 5.1628,0 6.7424,0.45241 10.1185,2.89808 4.4085,3.19348 7.2994,8.98457 7.2994,14.62216 l 0,3.47976 -14.0314,0 c -11.5591,0 -14.1329,0.26469 -14.6078,1.50224 -0.8699,2.26679 0.3788,6.08348 2.9793,9.10682 2.047,2.37967 3.0768,2.71418 8.5867,2.78904 5.6376,0.0766 6.4956,-0.18786 8.6191,-2.65652 2.7728,-3.2236 7.4541,-3.81252 7.4541,-0.93775 0,2.70238 -5.96,7.86745 -10.5,9.0995 -4.8227,1.30877 -6.8077,1.25625 -11.8782,-0.31427 z m 16.2088,-25.93793 c 0.1975,-1.03084 -0.8756,-3.13248 -2.4253,-4.75 -2.3612,-2.46452 -3.5528,-2.90113 -7.9181,-2.90113 -4.055,0 -5.5707,0.47445 -7.1879,2.25 -2.7216,2.98809 -4.387,6.32901 -3.5647,7.1513 0.3654,0.36534 5.1818,0.53701 10.7031,0.38148 8.8445,-0.24914 10.081,-0.50274 10.3929,-2.13165 z m 158.7301,25.9999 c -4.9799,-1.38583 -10.1466,-6.49831 -11.5029,-11.38214 -2.831,-10.19407 -0.084,-20.06428 7.0157,-25.20719 3.4729,-2.51575 5.1894,-3.0617 9.6262,-3.0617 8.8972,0 15.2502,4.8461 17.3459,13.23155 1.9262,7.707 1.8247,7.76845 -12.8231,7.76845 -15.4382,0 -17.2123,0.71837 -14.9551,6.05575 2.4324,5.75169 4.9326,7.27758 11.9247,7.27758 5.6431,0 6.3844,-0.25847 8.7371,-3.04656 2.0582,-2.43912 3.0039,-2.88328 4.7431,-2.22763 4.5199,1.70393 -0.8296,8.65718 -8.2883,10.77317 -4.7557,1.34916 -6.4151,1.32372 -11.8233,-0.18128 z M 1353,462.34439 c 0,-0.91058 -1.1479,-3.16058 -2.5509,-5 -2.3218,-3.04405 -3.0178,-3.34239 -7.75,-3.32215 -5.494,0.0235 -8.529,1.6474 -10.5821,5.66202 -2.0896,4.08609 -1.5637,4.31574 9.883,4.31574 9.5706,0 11,-0.21514 11,-1.65561 z m 20.8912,25.30076 c -4.4583,-1.41474 -6.5779,-3.13867 -8.5514,-6.95502 -1.2669,-2.44982 -1.2984,-3.10131 -0.1841,-3.80752 2.4857,-1.57537 4.6947,-0.90148 6.8176,2.07983 3.7578,5.27735 13.5984,5.03104 15.5063,-0.38811 0.8545,-2.42696 0.6238,-3.08866 -1.8057,-5.17842 -1.532,-1.31775 -3.5802,-2.39591 -4.5515,-2.39591 -3.0662,0 -10.7599,-3.01359 -12.9842,-5.08586 -1.6174,-1.50686 -2.1382,-3.17515 -2.1382,-6.8495 0,-4.30848 0.3995,-5.20822 3.5348,-7.96105 3.1506,-2.76622 4.2169,-3.10359 9.8102,-3.10359 5.6771,0 6.5794,0.2973 9.4652,3.11866 3.9373,3.8495 4.3491,7.88134 0.8048,7.88134 -1.4405,0 -3.0337,-0.99003 -4.023,-2.5 -1.3824,-2.10979 -2.4113,-2.5 -6.592,-2.5 -4.1018,0 -5.2198,0.40579 -6.4996,2.3591 -2.8702,4.38043 -0.5024,6.44986 9.9996,8.73977 8.2924,1.80811 11.5,5.05394 11.5,11.63712 0,4.04926 -0.4727,5.32835 -2.75,7.44085 -4.8644,4.51244 -10.5122,5.64088 -17.3588,3.46831 z M 632.21226,486.75 c -0.72061,-0.87229 -0.59107,-2.45867 0.42869,-5.25 0.80373,-2.2 4.64193,-13.45 8.52934,-25 3.88741,-11.55 7.5769,-21.33061 8.19886,-21.73469 1.52152,-0.98849 5.82041,-0.93155 7.44493,0.0986 0.72275,0.45832 3.36618,6.86393 5.87429,14.23468 2.50811,7.37076 6.30427,18.51214 8.43592,24.75863 2.13164,6.24648 3.87571,11.72866 3.87571,12.18261 0,0.45395 -0.95018,1.12694 -2.11151,1.49553 -2.76059,0.87618 -4.29967,-0.82418 -6.3681,-7.03539 -2.65248,-7.96501 -3.5084,-8.50489 -13.42538,-8.4682 -5.18544,0.0192 -9.21621,0.51506 -10.16097,1.25 -0.86128,0.67001 -2.36668,3.6932 -3.34533,6.7182 -1.96044,6.05964 -3.19467,8 -5.08871,8 -0.69031,0 -1.7198,-0.5625 -2.28774,-1.25 z m 28.40353,-21.19116 c 0.39896,-1.03967 -4.66033,-19.28686 -6.19197,-22.33238 -0.45414,-0.90301 -3.42382,1.24752 -3.42382,2.4794 0,0.82053 -0.63542,2.90989 -1.41205,4.64301 -2.57434,5.7449 -4.7816,13.7041 -4.21205,15.18832 0.79825,2.08022 14.44251,2.09961 15.23989,0.0216 z m 72.65671,21.63073 c -0.67513,-0.42889 -3.22472,-6.3845 -5.66576,-13.23468 -2.44104,-6.85019 -5.40423,-15.11099 -6.58486,-18.35733 -1.72586,-4.74556 -1.88937,-6.06557 -0.83424,-6.73469 3.76815,-2.38961 5.69586,0.12383 9.6922,12.63713 5.20408,16.29502 7.14963,19.93572 8.4166,15.75 2.84054,-9.38431 9.90374,-27.76016 10.91754,-28.40341 1.76414,-1.11933 3.54367,-1.04774 4.29806,0.1729 0.34654,0.56071 -0.35239,3.82321 -1.55319,7.25 -1.2008,3.42678 -3.96244,11.39513 -6.13696,17.70745 -2.17453,6.31232 -4.42913,12.04982 -5.01023,12.75 -1.16793,1.40727 -5.62195,1.68059 -7.53916,0.46263 z m 67.9775,0.14815 c -0.93782,-0.37842 -1.25,-5.20199 -1.25,-19.31406 0,-16.22948 0.21698,-18.89295 1.58179,-19.41667 2.17595,-0.83499 2.1051,-0.85945 4.28301,1.47826 l 1.94271,2.08525 3.92397,-2.25835 c 4.2988,-2.47407 7.26852,-2.09038 7.26852,0.93911 0,1.3224 -1.66556,2.72892 -5.38831,4.55029 -3.45175,1.68879 -5.60325,3.43812 -5.98635,4.86736 -0.32892,1.2271 -0.60418,7.42859 -0.61169,13.78109 -0.0155,13.10914 -0.93763,15.23506 -5.76365,13.28772 z m 68.97919,-0.50853 C 869.34683,485.94683 869,480.45549 869,467.36739 c 0,-17.32704 0.0989,-18.264 1.99105,-18.86455 2.3814,-0.75583 4.00895,0.0789 4.00895,2.05618 0,1.86082 0.2871,1.82696 4.73882,-0.55902 5.35021,-2.86754 12.66985,-2.68841 16.73138,0.40947 4.39856,3.35495 5.5298,8.13971 5.5298,23.38916 0,11.85829 -0.17192,13.12116 -1.85912,13.65666 -1.02252,0.32453 -2.59752,0.30671 -3.5,-0.0396 C 895.22617,486.87281 895,484.82623 895,472.56733 c 0,-13.56967 -0.10565,-14.31795 -2.31445,-16.39302 -2.78519,-2.61655 -9.1543,-2.93514 -12.45531,-0.62303 -3.95819,2.77243 -4.71321,5.5062 -5.23024,18.93778 -0.40658,10.56219 -0.78415,13.04326 -2.02081,13.27918 -0.83645,0.15958 -2.07395,-0.263 -2.75,-0.93905 z M 980.25,487.33772 c -0.95376,-0.38485 -1.25,-6.4989 -1.25,-25.79861 0,-21.42521 0.23278,-25.48741 1.52185,-26.55724 1.1113,-0.9223 4.46512,-1.12352 12.43222,-0.7459 12.46033,0.5906 16.68043,2.36658 19.43943,8.18092 3.1664,6.67266 1.0857,15.30036 -4.4268,18.35577 -6.9456,3.84973 -6.9988,2.95421 0.8775,14.77141 7.2805,10.92331 7.8575,13.35082 2.8758,12.10049 -1.6338,-0.41005 -4.9423,-4.19195 -10.1275,-11.57661 C 993.90402,465.11812 991.77128,463.30304 988,464.5 c -1.82834,0.58029 -2,1.51303 -2,10.86739 0,11.71735 -1.03535,13.87273 -5.75,11.97033 z m 22.1548,-29.47628 c 1.3743,-0.6262 3.2388,-2.69792 4.1432,-4.60382 1.4434,-3.04168 1.4752,-3.90962 0.2608,-7.10056 -0.761,-1.99942 -2.4918,-4.19607 -3.8462,-4.88144 -2.9093,-1.4722 -16.64708,-1.71183 -17.12927,-0.2988 -0.18333,0.53726 -0.18777,4.81226 -0.01,9.5 l 0.32348,8.52318 6.87947,0 c 3.78371,0 8.00402,-0.51235 9.37842,-1.13856 z m 22.0452,29.18981 c -0.5685,-0.56776 -0.8374,-12.21327 -0.6696,-29 L 1024.0609,430 l 2.3611,0 c 3.0224,0 3.7376,2.69701 3.4857,13.14512 -0.1048,4.34797 0.012,8.10828 0.2603,8.35623 0.248,0.24796 2.11,-0.43841 4.1378,-1.52526 5.4592,-2.92594 12.7178,-2.66856 16.5882,0.58819 4.1616,3.50176 5.0939,7.72749 5.1004,23.11833 0.01,12.51737 -0.1004,13.21626 -2.0951,13.84934 -1.1553,0.3667 -2.5377,0.2296 -3.072,-0.30465 -0.5343,-0.53426 -1.0515,-7.06827 -1.1493,-14.52002 -0.1687,-12.84119 -0.3046,-13.68332 -2.6023,-16.12796 -3.5807,-3.80963 -10.159,-3.64985 -14.1526,0.34376 l -2.9231,2.92307 0,12.87693 c 0,12.63037 -0.6063,15.27692 -3.5,15.27692 -0.605,0 -1.5275,-0.42694 -2.05,-0.94875 z m 85.8,0.28647 c -0.9378,-0.37842 -1.25,-5.20199 -1.25,-19.31406 0,-16.76071 0.1847,-18.88055 1.6954,-19.46027 0.9952,-0.38191 2.7956,0.16286 4.3596,1.31914 2.4349,1.80023 2.801,1.83294 4.2538,0.38008 2.3563,-2.35629 11.625,-2.86534 15.5178,-0.85227 5.7723,2.98498 7.1734,7.59076 7.1734,23.58121 0,12.10487 -0.2286,14.15894 -1.6359,14.69898 -0.8998,0.34527 -2.3623,0.17127 -3.25,-0.38666 -1.3248,-0.83263 -1.7037,-3.63157 -2.1141,-15.61823 -0.5722,-16.7112 -1.0211,-17.59714 -8.9453,-17.65384 -3.4877,-0.0249 -5.0494,0.54701 -7.25,2.65529 -2.7937,2.67659 -2.8047,2.73836 -2.8047,15.8 0,14.76934 -0.8042,16.84631 -5.75,14.85063 z m 104.3002,-0.25648 c -0.7778,-1.25854 15.2793,-49.1498 17.2105,-51.33124 1.8925,-2.13766 6.548,-2.28794 8.2264,-0.26554 1.1157,1.34438 6.3909,15.11156 7.6693,20.01554 0.2868,1.1 0.7811,2.675 1.0984,3.5 0.3173,0.825 2.476,7.125 4.7971,14 3.6426,10.78939 4.0279,12.70295 2.8153,13.98305 -2.2434,2.36847 -4.5648,0.0808 -7.0976,-6.9945 -1.2427,-3.47149 -2.524,-6.57657 -2.8473,-6.90018 -1.0775,-1.07848 -16.8828,-1.26767 -19.5695,-0.23425 -2.0781,0.7993 -3.1107,2.41089 -4.8027,7.49527 -1.9325,5.80713 -3.3958,7.65061 -6.0729,7.65061 -0.4725,0 -1.1147,-0.41344 -1.427,-0.91876 z m 28.2356,-20.92769 c 1.0057,-0.63813 0.5005,-3.24862 -2.3195,-11.98469 C 1238.4834,448.02599 1236.5145,443 1236.091,443 c -0.9882,0 -2.8239,4.0014 -5.1475,11.22018 -1.0127,3.1461 -2.3489,6.66876 -2.9694,7.82814 -2.0772,3.88137 -0.6131,4.95298 6.7445,4.93637 3.7298,-0.008 7.36,-0.38244 8.0672,-0.83114 z m 22.6932,20.65239 c -0.2816,-0.73388 -0.3921,-13.70294 -0.2455,-28.82013 L 1265.5,430.5 l 2.5,0 2.5,0 0,28.5 0,28.5 -2.2545,0.32014 c -1.2399,0.17607 -2.4849,-0.28031 -2.7665,-1.0142 z M 953,468.5 c -0.99473,-1.19858 -0.98771,-1.80988 0.0349,-3.0421 1.89361,-2.28166 13.83022,-1.644 15.36067,0.82057 1.61916,2.60743 -0.71997,3.68797 -8.02317,3.70622 -4.24171,0.0106 -6.51068,-0.44634 -7.37244,-1.48469 z m 240,0 c -2.3298,-2.80719 0.5244,-4.5 7.5873,-4.5 5.1435,0 6.5292,0.34908 7.3307,1.8468 1.5645,2.92332 -0.6551,4.1532 -7.4956,4.1532 -4.2712,0 -6.5617,-0.46289 -7.4224,-1.5 z M 1073,440.64079 C 1073,438.7763 1080.8503,430 1082.518,430 c 1.7525,0 8.482,8.2139 8.482,10.35299 0,2.17581 -1.1822,2.07815 -4.2729,-0.35299 -1.3984,-1.1 -3.3006,-2 -4.2271,-2 -0.9265,0 -2.8287,0.9 -4.2271,2 -2.9415,2.3138 -5.2729,2.59712 -5.2729,0.64079 z m -36,-30.05474 c -11.3929,-2.50438 -22.2092,-9.74811 -26.6904,-17.87476 -2.061,-3.73763 -4.6393,-12.71478 -3.8727,-13.48394 0.3988,-0.40004 5.411,-0.88074 11.1384,-1.06821 l 10.4134,-0.34087 1.7557,3.2386 c 3.3234,6.13068 7.139,9.67478 12.197,11.32919 9.2646,3.03028 24.5544,1.61133 31.471,-2.92065 5.5741,-3.65226 9.5545,-14.09974 9.5757,-25.13362 0.019,-9.80901 -0.3918,-10.07749 -6.6567,-4.35173 -8.4662,7.73766 -16.5872,11.02418 -27.2035,11.00912 -11.0341,-0.0157 -17.1334,-2.1128 -26.6608,-9.16683 -5.7585,-4.26359 -7.306,-5.9776 -10.7915,-11.95256 -5.2267,-8.95991 -6.1709,-13.31931 -6.1444,-28.36979 0.023,-13.05729 0.2166,-14.47136 2.8745,-21 3.4069,-8.36838 6.2882,-12.58468 12.4357,-18.19749 8.1453,-7.43675 18.2367,-11.32368 29.2296,-11.25838 12.1838,0.0724 18.9659,2.59856 26.8038,9.98395 2.4062,2.26723 4.7417,3.75091 5.1901,3.29707 0.4483,-0.45383 0.9546,-3.07515 1.1251,-5.82515 l 0.31,-5 11.25,-0.28275 11.25,-0.28275 -0.011,51.78275 c -0.011,54.11607 -0.021,54.25344 -4.4563,64.63611 -2.4258,5.67841 -10.1952,13.44736 -16.7645,16.76353 -3.1702,1.60033 -8.9444,3.57871 -12.8316,4.3964 -8.388,1.76448 -27.0639,1.80338 -34.9368,0.0728 z m 31.5,-60.89956 c 5.5767,-2.91028 10.647,-9.01743 12.9828,-15.63762 2.1566,-6.11245 1.9538,-22.1978 -0.3514,-27.87763 -5.3526,-13.18817 -19.474,-19.59647 -33.842,-15.35758 -6.4242,1.89527 -13.9003,9.41599 -16.314,16.41136 -2.7031,7.83414 -2.7003,20.76548 0.01,27.98747 2.4155,6.44575 8.966,13.37464 15.0602,15.93032 6.2871,2.6365 15.7973,2.01981 22.4583,-1.45632 z m -898.89135,39.73606 c -0.89378,-2.32917 -0.71277,-20.71032 0.21839,-22.17694 0.63239,-0.99604 23.64472,-1.20199 111.73469,-1 L 392.5,366.5 l 0,12 0,12 -111.14135,0.25433 c -100.70047,0.23045 -111.19852,0.10533 -111.75,-1.33178 z m -49.75763,-1.35286 C 112.28468,383.99457 105,378.89299 105,377.66927 c 0,-0.6981 0.39509,-1.69677 0.87798,-2.21927 0.4829,-0.5225 2.3564,-3.65 4.16335,-6.95 6.07295,-11.09091 7.15765,-12.96893 12.41794,-21.5 2.88262,-4.675 6.77103,-11.3375 8.64093,-14.80556 3.85346,-7.14696 3.61318,-6.7316 10.52538,-18.19444 2.81907,-4.675 6.96894,-11.875 9.22193,-16 2.253,-4.125 5.57674,-9.75 7.38609,-12.5 l 3.28973,-5 10.53487,-0.28177 10.53486,-0.28177 6.38793,5.12665 c 3.51336,2.81966 7.31742,5.53955 8.45347,6.04421 1.13605,0.50466 3.58695,1.83573 5.44645,2.95794 1.85951,1.12221 6.80951,3.169 11,4.54842 6.41324,2.1111 9.51829,2.50962 19.61909,2.51801 10.15715,0.008 13.17037,-0.37681 19.62106,-2.50868 11.45607,-3.78608 22.52821,-10.41006 29.31603,-17.53852 1.6154,-1.69647 3.4154,-3.06929 4,-3.0507 0.5846,0.0186 4.21291,2.93401 8.06291,6.47872 3.85,3.54472 7.3375,6.45451 7.75,6.46621 0.4125,0.0117 0.75,1.09998 0.75,2.41838 0,4.77181 -21.21186,20.87823 -34,25.81661 -12.6126,4.87058 -20.47897,6.24967 -35.5,6.22366 -20.75893,-0.0359 -34.92112,-4.01348 -49.97299,-14.03521 -7.41824,-4.93917 -8.09663,-5.19663 -9.75,-3.70036 -0.97736,0.8845 -1.77701,1.93162 -1.77701,2.32694 0,0.62165 -11.25684,20.77195 -13.95004,24.97126 -0.96726,1.50819 -17.19429,29.4087 -26.59676,45.73009 -2.77574,4.8183 -5.70074,8.88302 -6.5,9.03271 -0.79926,0.1497 -3.09524,-0.61221 -5.10218,-1.69311 z M 931,376.41966 C 915.98316,373.74674 907.32617,368.78941 898.83374,358 c -11.87357,-15.08504 -14.00319,-40.1722 -5.00592,-58.97015 6.12362,-12.79404 18.77207,-23.18242 32.7882,-26.92948 5.70804,-1.52598 19.2267,-1.37639 25.59853,0.28326 13.33682,3.47381 23.87123,11.92178 29.44903,23.61637 4.85461,10.17835 7.72454,27.53776 5.30124,32.06574 -0.99441,1.85806 -2.47176,1.93426 -37.5,1.93426 L 913,330 l 0,2.78839 c 0,3.79006 3.06926,12.22952 6.00668,16.51641 1.32641,1.93576 4.12858,4.63285 6.22704,5.99352 6.40067,4.15027 21.42346,4.70984 29.45936,1.09731 C 958.0065,354.90609 962,350.6124 962,348.53946 c 0,-0.65496 1.0415,-2.16927 2.31445,-3.36515 2.00207,-1.88084 3.453,-2.17224 10.75,-2.159 4.63955,0.008 9.05738,0.40915 9.81738,0.8905 3.18139,2.01492 -1.44356,13.28614 -8.45988,20.61715 -7.33643,7.66546 -17.51214,11.36079 -32.92195,11.95566 -5.5,0.21232 -11.125,0.18579 -12.5,-0.059 z m 31.24513,-67.79328 c -0.32089,-6.13599 -4.15064,-13.34379 -8.76997,-16.50556 -7.21353,-4.9374 -20.3062,-5.04699 -27.47854,-0.22999 C 919.64333,296.15775 914,305.54146 914,311.83878 l 0,2.19678 24.25,-0.26778 24.25,-0.26778 -0.25487,-4.87362 z M 1223.5,376.36948 c -11.4282,-1.77114 -20.0426,-5.94546 -28.2275,-13.67829 -6.2843,-5.93714 -9.3567,-10.95858 -12.3785,-20.23064 -3.172,-9.73303 -3.1495,-26.93952 0.048,-36.66883 5.4906,-16.70733 18.5862,-28.91313 35.8435,-33.40809 9.9673,-2.59613 26.7329,-1.31873 35.7146,2.72116 3.4948,1.57192 11.9442,7.2141 15.3858,10.27399 3.6536,3.24836 8.509,11.36194 11.4554,19.14243 2.3604,6.23319 2.6588,8.41938 2.6588,19.47879 0,11.04631 -0.3004,13.25298 -2.6517,19.47879 -6.1908,16.39179 -16.3887,26.23459 -32.2489,31.126 -4.8153,1.48509 -20.4495,2.56283 -25.5994,1.76469 z m 18.884,-19.5918 c 2.4945,-0.74078 5.9577,-3.05613 8.7908,-5.87716 5.7365,-5.71206 7.877,-11.82106 8.5493,-24.40052 1.0719,-20.05333 -6.7398,-33.08783 -21.7864,-36.35254 -10.5174,-2.28201 -21.1121,1.78539 -27.2193,10.4497 -5.6248,7.97991 -7.8275,20.19562 -5.7747,32.02471 2.1312,12.28116 6.9301,19.50633 15.5563,23.42142 4.7639,2.16215 15.8261,2.53338 21.884,0.73439 z M 817.45835,373.75 c -0.26338,-0.6875 -0.36175,-23.525 -0.21861,-50.75 l 0.26026,-49.5 11,0 11,0 0.8393,7 c 0.46162,3.85 1.01867,7.18205 1.23789,7.40455 0.21922,0.22251 2.24854,-1.69711 4.50959,-4.2658 5.14034,-5.83973 11.789,-9.8036 18.9122,-11.27529 7.79847,-1.6112 8.12612,-1.14666 7.78435,11.03664 L 872.5,293.5 l -4,0.27329 c -12.01687,0.82104 -21.7515,6.53437 -25.67587,15.06937 -2.00609,4.363 -2.16459,6.54612 -2.5079,34.54348 -0.20156,16.43738 -0.60673,30.27488 -0.90037,30.75 -0.88613,1.43379 -21.39848,1.07306 -21.95751,-0.38614 z m 318.01305,0.034 c -0.2706,-0.70619 -0.3748,-23.559 -0.2317,-50.784 l 0.2603,-49.5 11,0 11,0 0,50.5 0,50.5 -10.7683,0.28402 c -8.0559,0.21247 -10.8923,-0.0394 -11.2603,-1 z m 166.987,-0.034 c -0.2634,-0.6875 -0.3618,-23.525 -0.2187,-50.75 l 0.2603,-49.5 11.5,0 11.5,0 0.2999,5.75 c 0.1759,3.372 0.7597,5.75 1.4116,5.75 0.6114,0 2.5015,-1.53518 4.2001,-3.4115 6.0833,-6.71972 15.9455,-10.56685 27.0884,-10.56685 18.7082,0 30.845,10.42793 34.3793,29.53855 1.602,8.66271 1.5339,71.62664 -0.079,73.2398 -1.6403,1.64034 -20.9597,1.64034 -22.6,0 -0.8867,-0.88674 -1.2,-10.16441 -1.2,-35.53984 0,-32.23534 -0.1212,-34.57737 -1.9774,-38.21578 -3.1886,-6.25031 -7.2397,-8.48546 -16.1186,-8.89327 -8.1584,-0.37472 -13.0208,1.25162 -18.1947,6.08563 -6.0865,5.68662 -6.1811,6.29932 -6.5226,42.23703 -0.2022,21.28393 -0.6887,33.42622 -1.3724,34.25 -1.4756,1.77801 -21.6758,1.80171 -22.3559,0.0262 z M 351.5,328.23817 c -3.85,-6.43325 -8.30842,-14.18112 -9.90761,-17.2175 -1.59918,-3.03637 -5.10396,-9.12067 -7.7884,-13.52067 -2.68443,-4.4 -5.29008,-8.675 -5.79031,-9.5 -0.50023,-0.825 -2.35075,-4.2 -4.11226,-7.5 -1.76151,-3.3 -5.31246,-9.375 -7.89099,-13.5 -2.57853,-4.125 -5.81181,-9.525 -7.18506,-12 -1.37324,-2.475 -3.98732,-7.18286 -5.80906,-10.46191 -1.82175,-3.27905 -4.75321,-8.22905 -6.51437,-11 -2.94934,-4.6404 -5.84168,-9.71294 -12.28092,-21.53809 -1.34773,-2.475 -3.25363,-5.34233 -4.23533,-6.37183 -1.73995,-1.82469 -1.816,-1.81209 -3.01886,0.5 -1.70264,3.27275 -26.13428,45.51024 -32.17361,55.62183 -4.74789,7.94935 -6.88828,9.6385 -9.34322,7.3735 -0.5225,-0.48207 -2.975,-1.9993 -5.45,-3.37161 -9.53859,-5.28887 -10.98755,-6.29548 -10.99368,-7.63745 -0.003,-0.76206 3.745,-7.73706 8.32995,-15.5 4.58494,-7.76294 10.27419,-17.48944 12.64277,-21.61444 2.36857,-4.125 7.16725,-12.39431 10.66373,-18.37625 C 254.13925,196.64181 257,191.58456 257,191.3854 c 0,-0.19915 2.52246,-4.42068 5.60547,-9.38117 3.51298,-5.6523 6.40601,-9.21976 7.75,-9.5567 1.17949,-0.2957 5.91235,-0.40486 10.51746,-0.24258 l 8.37293,0.29505 7.2107,12 c 3.96589,6.6 9.91523,16.725 13.22076,22.5 3.30553,5.775 9.00539,15.61931 12.66637,21.87625 3.66097,6.25694 6.65631,11.53919 6.65631,11.73835 0,0.19915 2.40849,4.30484 5.35219,9.12375 2.9437,4.81891 9.76834,16.41165 15.16586,25.76165 5.39752,9.35 11.8289,20.375 14.29195,24.5 2.46306,4.125 5.32076,8.98925 6.35045,10.80945 1.02969,1.82019 3.66482,6.47298 5.85586,10.33953 2.19103,3.86655 3.98369,7.155 3.98369,7.30767 0,1.26169 -17.78175,11.46056 -20,11.47116 -0.85256,0.004 -4.52138,-5.04147 -8.5,-11.68964 z m 305,9.06223 c -17.28458,-1.85116 -28.52675,-15.06799 -28.48918,-33.49322 0.0274,-13.44908 7.81545,-25.84209 19.32209,-30.74705 5.74818,-2.45029 17.98147,-2.79082 24.07379,-0.67012 9.59955,3.34154 16.67263,12.80388 18.62704,24.9192 0.68686,4.25784 0.9238,8.06762 0.52653,8.46616 C 690.163,306.17392 679.63692,306.725 667.16898,307 l -22.66898,0.5 -0.32021,2.78924 c -0.45915,3.99955 3.22863,10.9224 7.04897,13.2326 2.50149,1.51269 5.01304,1.96811 10.67347,1.93544 l 7.40224,-0.0427 3.7776,-4.25682 c 3.77424,-4.25303 3.78321,-4.25655 10.09776,-3.95728 6.10129,0.28917 6.30832,0.38612 5.97805,2.79954 -0.37954,2.77343 -4.18796,8.29351 -8.10679,11.75033 -4.33253,3.82174 -16.01972,6.46377 -24.55109,5.55007 z m 17.52634,-40.83213 c 1.79468,-2.16247 -0.30642,-8.75682 -3.62079,-11.3639 -2.96946,-2.33578 -9.8801,-3.59833 -14.33727,-2.61937 -6.50848,1.4295 -13.77684,10.75139 -10.99576,14.10238 1.77481,2.13851 27.16684,2.03406 28.95382,-0.11911 z m 31.12709,39.64772 c -1.08376,-0.68684 -1.33251,-6.86582 -1.27454,-31.66015 0.0396,-16.94372 0.46749,-31.20222 0.95082,-31.68555 0.48334,-0.48334 3.53188,-0.74188 6.77454,-0.57454 L 717.5,272.5 l 0.5,3.81998 0.5,3.81998 4,-3.35238 C 728.15284,272.04996 731.13759,271 738.95255,271 c 11.11925,0 16.99759,4.24049 20.78239,14.99192 0.83876,2.38264 1.23978,10.7953 1.25,26.2229 C 761.00183,337.6865 761.20915,337 753.5,337 c -7.61285,0 -7.5,0.32967 -7.5,-21.91018 0,-22.6209 -0.32327,-25.14037 -3.65302,-28.47011 -4.53114,-4.53115 -14.86293,-4.17591 -19.4209,0.66774 -4.35132,4.62405 -4.92608,7.9067 -4.92608,28.13467 0,13.5828 -0.3501,19.52798 -1.2,20.37788 -1.37211,1.37211 -9.62672,1.59607 -11.64657,0.31599 z m 433.95467,-81.77568 c -2.2928,-1.16775 -4.0307,-3.17167 -5.3632,-6.1842 -1.7069,-3.85874 -1.8118,-4.98953 -0.7814,-8.42859 3.2778,-10.9405 16.4717,-13.69056 24.0845,-5.02005 2.424,2.76082 2.952,4.25276 2.952,8.34201 0,4.25032 -0.4886,5.51307 -3.3352,8.61927 -2.9073,3.17233 -4.0302,3.68813 -8.75,4.01924 -3.7755,0.26487 -6.4417,-0.14313 -8.8067,-1.34768 z M 742.40807,208.56875 c -5.11092,-2.32467 -8.02859,-5.47698 -10.25641,-11.08124 -0.8199,-2.06252 -1.11147,-9.00004 -0.9246,-22 L 731.5,156.5 l 5.5,0 5.5,0 0.5,18.54731 c 0.42128,15.62724 0.78375,18.97985 2.3023,21.29464 3.69419,5.63121 12.04034,5.80521 16.10187,0.33567 1.90221,-2.56164 2.14202,-4.54786 2.59583,-21.5 l 0.5,-18.67762 5.40535,-0.30765 c 3.64725,-0.20758 5.6751,0.11767 6.23469,1 1.52094,2.39813 0.99476,30.86918 -0.69022,37.34755 -3.63896,13.99096 -18.88938,20.46598 -33.04175,14.02885 z m 110.24213,0.8078 c -8.9626,-3.23676 -14.99893,-9.73638 -17.3074,-18.63578 -1.64624,-6.34641 -1.68231,-9.48661 -0.17859,-15.54795 6.44121,-25.96384 45.73181,-27.12518 53.42009,-1.57898 5.71564,18.99164 -7.85112,37.70997 -27.01244,37.2696 -2.78952,-0.0641 -6.80427,-0.74221 -8.92166,-1.50689 z m 17.32635,-11.19446 c 6.72224,-4.98184 8.91109,-15.61259 5.063,-24.58983 -2.40636,-5.61379 -6.84557,-8.58331 -12.83921,-8.58852 -8.19659,-0.007 -12.17738,3.67772 -14.08336,13.03637 -0.88169,4.32922 -0.81751,6.55877 0.3099,10.76629 1.72731,6.44637 2.91075,7.96776 8.07312,10.37847 4.65625,2.17437 9.69542,1.79941 13.47655,-1.00278 z m 162.28265,11.1587 c -4.9798,-1.76295 -10.8509,-8.10545 -11.4817,-12.40369 -0.238,-1.62167 -0.2103,-3.17092 0.062,-3.44279 0.2719,-0.27187 2.6249,-0.49431 5.2289,-0.49431 4.3425,0 4.904,0.28714 6.7805,3.4677 2.2345,3.78707 4.8149,4.84174 10.6476,4.35189 5.126,-0.43051 8.4187,-4.51671 6.6924,-8.30543 -1.3451,-2.95225 -3.0303,-3.72289 -13.0565,-5.97081 C 1025.3812,183.90878 1022,180.47979 1022,171.19754 c 0,-9.4802 7.8058,-16.0734 19.1279,-16.15632 9.1596,-0.0671 15.4656,3.28608 18.9244,10.06289 2.3301,4.56534 1.198,5.89818 -5.0023,5.88957 -3.9684,-0.006 -4.7602,-0.37585 -6.1946,-2.8974 -3.0179,-5.30521 -12.6631,-5.38898 -14.8419,-0.12891 -2.307,5.56963 0.3036,7.43928 14.0118,10.03492 7.2036,1.36399 11.7496,4.21473 13.5349,8.48749 6.5461,15.66704 -10.9816,29.33641 -29.301,22.85101 z m 175.922,-0.0833 c -5.9351,-2.04809 -13.2246,-9.59136 -15.4312,-15.96848 -3.4908,-10.0882 -1.4806,-21.49616 5.138,-29.15932 6.5362,-7.56766 17.9111,-11.11444 27.5737,-8.59765 8.7572,2.28098 12.1994,4.91726 15.5023,11.87296 2.5507,5.37159 1.8087,6.59501 -3.9996,6.59501 -4.8509,0 -7.9644,-1.74215 -7.9644,-4.45642 0,-2.40979 -4.7528,-4.54358 -10.1204,-4.54358 -7.2827,0 -11.2915,3.16913 -13.4646,10.64451 -3.0076,10.34574 -0.098,20.3799 6.8681,23.68553 6.805,3.22917 14.3536,1.48911 18.3612,-4.23253 2.4347,-3.47609 1.0831,-4.95364 -4.8422,-5.29344 L 1220.5,189.5 l 0,-4 0,-4 11.5,0 11.5,0 -0.1332,7.19302 c -0.1532,8.27023 -2.1388,12.41962 -8.1748,17.08354 -6.7366,5.20521 -17.86,6.6387 -27.0108,3.48092 z m 108.7486,0.38767 c -7.0177,-2.25089 -12.738,-7.27741 -16.0268,-14.08298 -2.7294,-5.64779 -2.6769,-19.60441 0.094,-25.10073 2.9535,-5.8579 7.8121,-10.44524 13.9712,-13.19136 13.1746,-5.87399 30.2221,-0.33011 33.6855,10.95452 1.4127,4.60304 0.3305,5.7754 -5.331,5.7754 -3.5849,0 -4.5535,-0.44499 -5.9856,-2.75 -2.9267,-4.71036 -5.4776,-6.20386 -10.6372,-6.22776 -6.0256,-0.0279 -9.8959,1.94018 -12.6827,6.44929 -1.7574,2.84346 -2.1755,5.05117 -2.1755,11.4863 0,9.42962 1.7444,13.25009 7.3681,16.13734 7.1333,3.66233 16.5552,1.28222 18.8535,-4.76266 1.2743,-3.35168 0.01,-4.2962 -5.7946,-4.3172 -3.6395,-0.0132 -4.3162,-0.35472 -4.8403,-2.44314 -0.3352,-1.3353 -0.3134,-3.3603 0.048,-4.5 0.6148,-1.93704 1.4032,-2.07217 12.0903,-2.07217 l 11.4326,0 -0.022,6.25 c -0.014,3.90863 -0.7163,7.77881 -1.8754,10.33098 -2.0899,4.60161 -8.8212,10.40089 -14.1736,12.21122 -4.3584,1.47413 -13.1693,1.40215 -17.9992,-0.14705 z m -685.82479,-1.01862 c -0.80327,-0.96789 -1.06091,-8.86721 -0.87245,-26.75 L 630.5,156.5 l 6,0 6,0 0.5,21.5 0.5,21.5 9.44588,0.29012 c 5.19523,0.15956 10.03273,0.77716 10.75,1.37244 1.63524,1.35713 1.69911,6.04245 0.10412,7.63744 -1.82323,1.82323 -31.16709,1.66754 -32.69499,-0.17347 z M 686.63029,207.75 c -0.9098,-3.39488 -0.72047,-49.05965 0.20947,-50.52497 0.61533,-0.96958 4.86343,-1.20911 17.73469,-1 L 721.5,156.5 l 0,4 0,4 -11,0.5 -11,0.5 0,6 0,6 8.5,0.5 8.5,0.5 0.30703,3.69399 c 0.28955,3.48381 0.11886,3.72566 -3,4.25068 -1.81887,0.30619 -5.78203,0.66889 -8.80703,0.80601 l -5.5,0.24932 0,6 0,6 11.23914,0.28265 c 11.01333,0.27697 11.25159,0.33222 11.85841,2.75 0.3406,1.35704 0.33691,3.59235 -0.008,4.96735 l -0.62746,2.5 -17.36432,0 c -17.16211,0 -17.37134,-0.0262 -17.96729,-2.25 z m 100.84087,1.03543 c -0.27857,-0.72592 -0.38603,-12.78711 -0.23882,-26.80264 L 787.5,156.5 802,156.5131 c 14.9204,0.0135 16.81236,0.45671 21.67568,5.0782 1.48598,1.41208 4.32432,8.13814 4.32432,10.2474 0,3.77892 -3.27631,9.81197 -6.54469,12.0515 -1.92235,1.31721 -3.45531,3.22103 -3.45531,4.29122 0,1.05798 2.475,5.64309 5.5,10.18913 7.11267,10.6891 7.1119,11.62946 -0.01,11.62946 -6.15345,0 -5.435,0.67768 -14.84214,-14 -4.97786,-7.7668 -8.19626,-9.11549 -9.09691,-3.81209 -0.30937,1.82165 -0.6725,6.46209 -0.80696,10.31209 l -0.24449,7 -5.26118,0.30265 c -3.66186,0.21064 -5.41515,-0.0986 -5.76766,-1.01722 z m 25.7001,-30.44042 c 2.8838,-2.6098 2.44733,-8.71327 -0.80612,-11.27243 -3.56014,-2.80041 -10.86141,-2.88232 -12.32996,-0.13832 -1.14371,2.13704 -1.33822,7.33303 -0.40489,10.81574 0.53354,1.99092 1.24257,2.25 6.1576,2.25 3.76532,0 6.14372,-0.53312 7.38337,-1.65499 z m 86.27969,30.38778 c -0.26745,-0.69697 -0.36582,-12.73447 -0.21861,-26.75 L 899.5,156.5 l 13.5,0 c 14.85831,0 18.02951,0.96618 22.39547,6.82333 3.00177,4.02702 3.01234,15.3141 0.0181,19.32456 -3.12236,4.18205 -10.63128,7.51704 -17.79068,7.9015 l -6.12289,0.3288 -0.25303,7.3109 C 910.84215,209.88569 910.7812,210 904.94956,210 c -3.12369,0 -5.19556,-0.47749 -5.49861,-1.26721 z m 23.91419,-29.80537 c 3.53887,-2.78368 3.62136,-8.03183 0.18031,-11.47287 C 921.58804,165.49713 920.06902,165 916.04545,165 L 911,165 l 0,8 0,8 4.86514,0 c 3.40774,0 5.65444,-0.62086 7.5,-2.07258 z m 23.09491,29.82908 c -0.27245,-0.71001 -0.37492,-12.75818 -0.22771,-26.77371 L 946.5,156.5 l 17,0 17,0 0,4 0,4 -9.94399,0.28855 c -5.46919,0.15871 -10.53169,0.77631 -11.25,1.37245 -1.63833,1.35969 -1.71476,9.03025 -0.10601,10.639 0.71309,0.71309 4.14774,1.2 8.46482,1.2 6.15905,0 7.42238,0.29441 8.3,1.93426 2.5998,4.85777 -0.16143,7.06574 -8.83625,7.06574 -3.9,0 -7.23303,0.50446 -7.92857,1.2 -1.60961,1.60961 -1.53194,9.27963 0.10775,10.64045 0.71927,0.59694 6.00677,1.21454 11.75,1.37244 L 981.5,200.5 l 0,4.5 0,4.5 -17.27229,0.27371 c -13.38735,0.21215 -17.3837,-0.0166 -17.76766,-1.01721 z m 146.76265,0.0662 c -1.4135,-1.41341 -1.7693,-49.41314 -0.3825,-51.59827 0.6146,-0.9685 4.7639,-1.20926 17.2346,-1 L 1126.5,156.5 l 0,4 0,4 -9,0.2498 c -13.6357,0.37847 -13.5,0.31149 -13.5,6.66226 0,6.39981 0.2991,6.58794 10.4734,6.58794 6.979,0 7.3384,0.11406 7.9424,2.52052 1.2719,5.06787 -0.6119,6.36975 -9.6795,6.68926 L 1104.5,187.5 l 0,6 0,6 10,0.24808 c 14.463,0.35879 14.6754,0.44096 14.3059,5.535 L 1128.5,209.5 l -17.0273,0.27266 c -12.3992,0.19854 -17.3597,-0.0597 -18.25,-0.95 z m 44.2283,-0.0899 c -0.2675,-0.69697 -0.3659,-12.73447 -0.2187,-26.75 L 1137.5,156.5 l 6.7062,-0.29469 6.7063,-0.29469 2.4031,3.79469 c 3.557,5.61653 7.7204,12.68753 11.8697,20.15881 2.0269,3.64974 4.0519,6.52467 4.5,6.38875 0.4481,-0.13593 0.9404,-6.40577 1.0941,-13.93298 0.1698,-8.31626 0.7239,-14.22146 1.4124,-15.05102 0.734,-0.88435 2.7488,-1.26017 5.7206,-1.06703 l 4.5876,0.29816 0,26.5 0,26.5 -5.6675,0.29744 c -4.9562,0.26011 -5.8718,0.009 -7.295,-2 -2.738,-3.8652 -17.5375,-28.84903 -17.5375,-29.60597 0,-0.39071 -0.9,-1.27244 -2,-1.9594 -1.9686,-1.22939 -2,-0.99869 -2,14.67767 0,8.75968 -0.2731,16.63849 -0.607,17.50847 -0.7592,1.97841 -9.2011,2.24551 -9.942,0.31458 z m 109.9106,-0.23276 c -0.4891,-1.27476 3.1415,-13.41785 12.851,-42.98104 3.2192,-9.80193 2.8837,-9.51899 11.2874,-9.51899 6.0623,0 7.5972,0.32206 8.3401,1.75 2.2639,4.35119 16.1599,47.89681 16.1599,50.63978 0,1.28493 -1.11,1.61022 -5.4949,1.61022 l -5.4949,0 -1.8969,-4.25 c -1.0433,-2.3375 -2.1565,-5.0375 -2.4737,-6 -0.4953,-1.50258 -1.9134,-1.75 -10.0307,-1.75 l -9.4538,0 -1.189,3.75 c -2.1435,6.76043 -3.5916,8.25 -8.0205,8.25 -2.6405,0 -4.2048,-0.51188 -4.584,-1.49997 z m 28.3157,-20.57729 c 0.7376,-0.73759 0.7728,-2.23533 0.1116,-4.75 -0.5311,-2.02001 -1.4647,-5.81024 -2.0747,-8.42274 -1.7833,-7.63709 -3.8898,-6.30238 -6.7075,4.25 -0.6609,2.475 -1.6002,5.26935 -2.0874,6.20966 -0.6351,1.22572 -0.3952,1.99555 0.8474,2.7196 2.3109,1.34647 8.5617,1.34236 9.9106,-0.007 z M 1361.2,208.8 c -0.8673,-0.86727 -1.2,-7.91516 -1.2,-25.41821 0,-13.32002 0.2731,-24.93002 0.607,-25.8 0.5189,-1.35227 2.9566,-1.58179 16.8,-1.58179 17.0515,0 18.593,0.37951 18.593,4.57756 0,3.5578 -2.0931,4.33028 -12.556,4.63389 l -9.944,0.28855 0,6 0,6 8.5,0.5 8.5,0.5 0.307,3.69399 c 0.2896,3.48381 0.1189,3.72566 -3,4.25068 -1.8188,0.30619 -5.782,0.66889 -8.807,0.80601 l -5.5,0.24932 0,6 0,6 10.4422,0.28711 c 5.7433,0.1579 11.0308,0.7755 11.75,1.37244 1.6383,1.35963 1.7044,6.04389 0.1078,7.64045 -0.834,0.83395 -6.1111,1.2 -17.3,1.2 -11.1889,0 -16.466,-0.36605 -17.3,-1.2 z"
       id="path4140"
       inkscape:connector-curvature="0" />
  </g>
</svg>
