<?xml version="1.0" encoding="UTF-8" standalone="no"?>
<!-- Created with Inkscape (http://www.inkscape.org/) -->

<svg
   xmlns:dc="http://purl.org/dc/elements/1.1/"
   xmlns:cc="http://creativecommons.org/ns#"
   xmlns:rdf="http://www.w3.org/1999/02/22-rdf-syntax-ns#"
   xmlns:svg="http://www.w3.org/2000/svg"
   xmlns="http://www.w3.org/2000/svg"
   xmlns:sodipodi="http://sodipodi.sourceforge.net/DTD/sodipodi-0.dtd"
   xmlns:inkscape="http://www.inkscape.org/namespaces/inkscape"
   id="svg2"
   version="1.1"
   inkscape:version="0.91 r13725"
   width="1411"
   height="445"
   viewBox="0 0 1411 445"
   sodipodi:docname="logo-region.svg">
  <metadata
     id="metadata8">
    <rdf:RDF>
      <cc:Work
         rdf:about="">
        <dc:format>image/svg+xml</dc:format>
        <dc:type
           rdf:resource="http://purl.org/dc/dcmitype/StillImage" />
        <dc:title></dc:title>
      </cc:Work>
    </rdf:RDF>
  </metadata>
  <defs
     id="defs6" />
  <sodipodi:namedview
     pagecolor="#ffffff"
     bordercolor="#666666"
     borderopacity="1"
     objecttolerance="10"
     gridtolerance="10"
     guidetolerance="10"
     inkscape:pageopacity="0"
     inkscape:pageshadow="2"
     inkscape:window-width="1600"
     inkscape:window-height="849"
     id="namedview4"
     showgrid="false"
     inkscape:zoom="0.48901488"
     inkscape:cx="680.31713"
     inkscape:cy="18.050507"
     inkscape:window-x="0"
     inkscape:window-y="0"
     inkscape:window-maximized="1"
     inkscape:current-layer="svg2" />
  <path
     style="fill:#1a90cd"
     d="m 174.5,344.51877 c -8.25,0.21266 -15.675,0.22348 -16.5,0.024 -0.825,-0.19943 -4.875,-0.90884 -9,-1.57646 -4.125,-0.66763 -11.3945,-2.48087 -16.15443,-4.02942 -4.75994,-1.54855 -11.95994,-4.48012 -16,-6.5146 -4.04007,-2.03448 -10.72057,-5.94813 -14.84557,-8.697 -4.125,-2.74887 -12.225,-9.80495 -18,-15.68017 -6.684661,-6.80066 -12.44102,-13.82132 -15.841782,-19.3212 -2.937981,-4.75144 -6.894189,-12.22967 -8.791575,-16.6183 -1.897385,-4.38862 -4.649735,-12.39525 -6.116332,-17.79249 -2.477395,-9.1171 -2.665112,-11.23184 -2.646405,-29.81318 0.01873,-18.60703 0.209444,-20.69648 2.738199,-30 1.494935,-5.5 5.359482,-15.41003 8.587881,-22.02228 3.536181,-7.24264 8.648539,-15.6177 12.859164,-21.06587 3.84414,-4.97398 9.800934,-11.58793 13.237319,-14.69768 3.436386,-3.10976 9.500707,-7.90271 13.476271,-10.65101 3.97556,-2.74831 10.83672,-6.79752 15.24701,-8.99825 4.4103,-2.20073 11.33331,-5.10635 15.38449,-6.45694 4.05117,-1.35059 10.96576,-3.22123 15.36576,-4.15698 5.31103,-1.12951 12.87375,-1.72264 22.5,-1.76465 9.86941,-0.0431 17.28149,0.48383 23.20981,1.6499 4.79039,0.94225 12.21539,2.8847 16.5,4.31655 4.2846,1.43185 10.94019,4.16958 14.79019,6.08385 3.85,1.91426 10.76154,5.96783 15.35898,9.00793 4.59745,3.0401 12.29874,9.4672 17.11399,14.28246 4.81526,4.81525 11.24186,12.51654 14.28134,17.11399 3.03948,4.59744 6.93841,11.18385 8.66428,14.63647 1.72588,3.45262 4.45365,10.20459 6.06173,15.00438 1.60808,4.79979 3.62036,12.72136 4.47173,17.6035 C 291.30342,209.26751 292,218.31909 292,224.5 c 0,6.18091 -0.6711,15.08639 -1.49133,19.78995 -0.82023,4.70356 -2.6674,12.3 -4.10481,16.88099 -1.43742,4.58098 -4.87026,12.74033 -7.62855,18.13189 -2.75828,5.39156 -7.06299,12.59156 -9.56602,16 -2.50303,3.40844 -7.28658,9.05731 -10.63012,12.55303 -3.34355,3.49573 -9.56073,8.98288 -13.81597,12.19368 -4.25523,3.21079 -10.5778,7.42659 -14.05015,9.36844 -3.47235,1.94185 -9.66579,4.92006 -13.76321,6.61823 -4.09741,1.69818 -11.94984,4.21447 -17.44984,5.59176 -7.81518,1.95704 -13.27723,2.58863 -25,2.8908 z M 99.715059,272.96972 c 0.118283,0.0167 4.790001,-7.73222 10.381591,-17.21972 5.59159,-9.4875 11.70149,-19.81543 13.57755,-22.95095 l 3.41102,-5.70096 4.65856,2.95438 c 2.56221,1.6249 7.15554,3.90304 10.20739,5.06253 3.30964,1.25742 8.97894,2.31461 14.04883,2.61977 5.98526,0.36026 10.34158,0.0394 14.72467,-1.08439 3.42357,-0.87781 8.85384,-2.92322 12.06727,-4.54535 3.21343,-1.62213 7.93922,-4.89687 10.50176,-7.27718 l 4.65917,-4.32785 -4.97812,-4.3335 -4.97812,-4.33351 -4.60122,4.05016 c -2.53067,2.22759 -7.14241,5.01425 -10.24832,6.1926 -3.1059,1.17834 -8.41329,2.37624 -11.7942,2.662 -4.58034,0.38713 -7.93541,-0.0236 -13.16331,-1.61155 -4.45495,-1.35315 -8.88492,-3.60825 -12.13537,-6.17758 -4.79821,-3.79277 -5.47461,-4.02775 -10.78776,-3.74755 l -5.66857,0.29893 -15.631,26.5 -15.631011,26.5 5.582065,3.21972 c 3.070137,1.77085 5.678843,3.23335 5.797125,3.25 z M 185,273 l 61,0 0,-6.5 0,-6.5 -61,0 -61,0 0,6.5 0,6.5 61,0 z m 42.76515,-27.01361 c 0.14583,0.007 2.75284,-1.39036 5.79336,-3.10632 3.04051,-1.71596 5.39619,-3.47102 5.23485,-3.90013 -0.16135,-0.42911 -11.30362,-19.51907 -24.7606,-42.42215 l -24.46725,-41.64195 -5.90347,0.29208 -5.90348,0.29208 -13.37928,22.80852 C 157.02068,190.8532 151,201.28268 151,201.48513 c 0,0.20245 2.52341,1.81184 5.60758,3.57642 3.97264,2.27291 5.81949,2.86547 6.33437,2.03238 0.39973,-0.64678 5.1698,-8.77628 10.60016,-18.06557 5.43036,-9.28928 10.15642,-16.71468 10.50237,-16.50087 0.34594,0.21381 10.26496,16.82646 22.04226,36.91701 11.77729,20.09055 21.53258,36.5344 21.67841,36.54189 z m 382.80335,97.96972 c -2.78768,-0.0241 -6.75191,-0.64471 -8.80942,-1.37904 -2.0575,-0.73433 -4.86422,-2.07116 -6.23714,-2.97074 -1.37292,-0.89957 -3.402,-3.41107 -4.50908,-5.58112 C 589.90579,331.85517 589,329.83675 589,329.53984 589,329.24293 590.80965,329 593.02144,329 c 3.35035,0 4.21723,0.42971 5.19468,2.575 0.64529,1.41624 2.4133,3.21624 3.92891,4 1.54311,0.79797 5.57256,1.425 9.15743,1.425 5.00944,0 7.14079,-0.49689 9.79966,-2.28463 1.94145,-1.30537 3.90947,-3.76998 4.59144,-5.75 0.65645,-1.90595 1.21895,-5.66858 1.25,-8.36139 l 0.0564,-4.89603 -2.3626,2.5493 c -1.29944,1.40211 -3.67749,3.22924 -5.28456,4.06029 -1.60707,0.83105 -4.55595,1.81754 -6.55307,2.1922 -2.29538,0.43062 -5.65552,0.0927 -9.13428,-0.91861 -4.26207,-1.23901 -6.41139,-2.63162 -9.53041,-6.17501 -2.88495,-3.27747 -4.37824,-6.14362 -5.26471,-10.10477 -0.9633,-4.30446 -0.97654,-6.77935 -0.0598,-11.17046 0.64773,-3.10249 2.43654,-7.43707 3.97514,-9.6324 1.53861,-2.19534 4.57004,-4.98582 6.73652,-6.20108 2.16649,-1.21525 5.63527,-2.49612 7.70841,-2.84638 2.07314,-0.35025 5.62161,-0.32389 7.88548,0.0586 2.63604,0.44536 5.5127,1.95713 8,4.20426 l 3.88387,3.50884 0,-3.61636 C 627,278.06394 627.07072,278 631,278 l 4,0 0,22.45078 c 0,12.64899 -0.48368,24.70608 -1.10785,27.61649 -0.74641,3.48039 -2.25082,6.43085 -4.61119,9.0435 -2.40527,2.66235 -5.09257,4.34974 -8.57366,5.38351 -2.78866,0.82815 -7.35113,1.48597 -10.1388,1.46183 z M 611.5,317.99252 c 3.25385,0 6.1553,-0.70436 8.30814,-2.01692 1.91004,-1.16452 4.11954,-3.80435 5.22804,-6.24626 1.05594,-2.32614 1.92978,-6.38129 1.94186,-9.01146 0.0121,-2.63016 -0.59185,-6.25118 -1.34207,-8.04669 -0.75021,-1.79552 -2.80974,-4.48106 -4.57672,-5.96788 -2.66691,-2.24406 -4.1765,-2.70267 -8.88598,-2.69957 -3.86149,0.003 -6.69566,0.62713 -8.87472,1.95578 -1.7608,1.07362 -3.99564,3.43444 -4.96631,5.24626 -1.16759,2.17939 -1.76485,5.49395 -1.76485,9.79422 0,4.30027 0.59726,7.61483 1.76485,9.79422 0.97067,1.81182 3.20551,4.17264 4.96631,5.24626 2.0483,1.24892 5.00244,1.95204 8.20145,1.95204 z m 552,25.00748 -3.5,0 0,-32.5 0,-32.5 3.5,0 c 3.4357,0 3.5,0.076 3.5,4.13486 l 0,4.13486 1.9633,-2.49593 c 1.0798,-1.37276 4.3213,-3.51029 7.2032,-4.75008 4.0906,-1.7597 6.3346,-2.12451 10.2304,-1.66311 2.8417,0.33656 6.9287,1.78939 9.492,3.37415 3.0903,1.91056 5.3025,4.34131 7.0563,7.75328 2.1529,4.18839 2.5548,6.31498 2.5548,13.5197 0,7.20662 -0.4013,9.32894 -2.5546,13.51174 -1.4798,2.87427 -4.2377,6.14511 -6.5546,7.77346 -2.7425,1.92753 -5.745,2.99134 -9.5514,3.3842 -3.3014,0.34073 -7.0633,0.074 -9.2813,-0.65794 -2.0513,-0.677 -5.266,-2.57989 -7.1439,-4.22864 l -3.4142,-2.99773 0,12.10359 0,12.10359 -3.5,0 z m 21.2576,-22.52096 c 2.3416,-0.24357 5.4021,-1.19282 6.8011,-2.10945 1.3989,-0.91662 3.2634,-3.05868 4.1432,-4.76012 0.8799,-1.70144 1.8119,-6.05793 2.0711,-9.68109 0.3723,-5.20366 0.04,-7.56311 -1.5828,-11.2313 -1.2737,-2.87953 -3.3147,-5.41227 -5.3722,-6.66667 -2.1625,-1.31845 -5.0592,-2.02293 -8.318,-2.02293 -3.199,0 -6.1532,0.70312 -8.2015,1.95204 -1.7607,1.07362 -3.936,3.37257 -4.8338,5.10878 -0.8978,1.7362 -1.8692,5.4686 -2.1587,8.29422 -0.2894,2.82561 -0.015,7.02952 0.6102,9.34201 0.625,2.31249 2.2869,5.5718 3.693,7.24289 1.4062,1.6711 3.9818,3.47399 5.7237,4.00643 1.7419,0.53243 5.083,0.76877 7.4247,0.52519 z m -755.97548,6.48182 c -2.35517,-0.0215 -5.63212,-0.63916 -7.28212,-1.3725 -1.65,-0.73335 -3.96937,-2.40324 -5.15415,-3.71086 -1.18478,-1.30763 -2.64477,-4.1775 -3.24442,-6.3775 -0.59965,-2.2 -1.09279,-11.5375 -1.09585,-20.75 L 412,278 l 3.93816,0 3.93816,0 0.31184,18.5887 0.31184,18.5887 2.80576,2.4113 c 2.1053,1.80932 3.97769,2.41037 7.5,2.40756 2.88241,-0.002 5.924,-0.75358 7.88042,-1.94649 1.7524,-1.06851 3.76708,-2.97933 4.47708,-4.24626 0.86241,-1.5389 1.41497,-7.8634 1.66465,-19.05351 l 0.37375,-16.75 3.39917,0 3.39917,0 0,24 0,24 -3.5,0 c -3.37689,0 -3.50017,-0.1319 -3.50497,-3.75 l -0.005,-3.75 -2.24504,2.73067 c -1.23477,1.50186 -3.91808,3.41436 -5.96291,4.25 -2.04484,0.83563 -5.64484,1.50172 -8,1.48019 z m 102.27154,-0.005 c -3.05451,-0.0241 -7.27095,-0.65636 -9.36986,-1.40492 -2.0989,-0.74857 -4.7819,-2.19131 -5.96221,-3.20611 -1.18031,-1.01479 -2.93528,-2.74508 -3.89993,-3.84508 -0.96466,-1.1 -2.50032,-4.19769 -3.41259,-6.88377 -1.15643,-3.40499 -1.51515,-6.88953 -1.1847,-11.50797 0.26067,-3.64331 1.26721,-8.19562 2.23675,-10.11623 0.96953,-1.92062 3.1409,-4.94444 4.82526,-6.7196 1.68436,-1.77516 5.29283,-3.96837 8.01882,-4.8738 3.26928,-1.08588 6.59048,-1.4527 9.75718,-1.07765 2.64046,0.31273 6.63111,1.50233 8.86811,2.64356 2.237,1.14123 5.20456,3.79352 6.59458,5.89398 1.39001,2.10045 2.96291,6.47906 3.49532,9.73024 0.53242,3.25118 0.97063,6.47374 0.97382,7.16124 0.004,0.95516 -4.35779,1.25 -18.49421,1.25 l -18.5,0 0.022,2.25 c 0.0121,1.2375 0.89877,4.18192 1.97043,6.54315 1.54739,3.40945 2.91249,4.71958 6.63186,6.36484 3.53636,1.5643 5.79317,1.91958 9.21462,1.45062 2.49216,-0.34159 5.5658,-1.29896 6.83029,-2.12749 1.2645,-0.82853 2.58001,-2.62573 2.92337,-3.99377 0.5349,-2.13119 1.19703,-2.48735 4.62429,-2.48735 3.80998,0 3.96895,0.12371 3.34639,2.60416 -0.35948,1.43229 -1.34595,3.66081 -2.19215,4.95228 -0.8462,1.29147 -3.83922,3.4946 -6.65115,4.89584 -3.69378,1.84069 -6.65382,2.53554 -10.66625,2.50383 z M 529.46348,297 l 14.32386,0 -1.01965,-4.01711 c -0.59601,-2.34809 -2.24562,-5.0487 -3.9704,-6.5 C 536.38025,284.44908 534.77254,284 529.90859,284 c -5.31375,0 -6.30633,0.34164 -9.44219,3.25 -1.92733,1.7875 -3.91431,4.7125 -4.41551,6.5 l -0.91128,3.25 14.32387,0 z M 719.5,326.98465 c -3.15384,-0.003 -6.84616,-0.87133 -10,-2.35268 -2.75,-1.29168 -5.76276,-3.20787 -6.69501,-4.25822 -0.93226,-1.05034 -2.60988,-3.92662 -3.72804,-6.39173 -1.46541,-3.23064 -2.03916,-6.61394 -2.05499,-12.11783 -0.0185,-6.44228 0.4148,-8.47185 2.77226,-12.98456 1.96481,-3.76107 4.13356,-6.1768 7.30632,-8.13837 2.55741,-1.58112 6.65375,-3.04246 9.45578,-3.37326 2.7365,-0.32307 6.9451,-0.0439 9.42649,0.62541 2.8999,0.78213 5.94894,2.67518 8.63488,5.36112 2.43953,2.43953 4.6097,5.80053 5.26161,8.14877 0.61025,2.19818 1.11206,5.9092 1.11512,8.2467 L 741,304 l -18,0 -18,0 0,2.53212 c 0,1.39266 0.62047,4.01711 1.37882,5.8321 0.75835,1.81499 2.59002,4.25271 4.07038,5.41716 1.48036,1.16445 4.70377,2.41893 7.16313,2.78774 3.14743,0.47198 5.7749,0.17281 8.87281,-1.0103 3.05059,-1.16503 4.80046,-2.58275 5.70216,-4.61983 1.10634,-2.49941 1.86269,-2.93899 5.05681,-2.93899 2.06574,0 3.75589,0.23945 3.75589,0.53212 0,0.29266 -0.61381,2.00118 -1.36403,3.79669 -0.75021,1.79552 -2.78918,4.46377 -4.53105,5.92945 -1.74187,1.46569 -4.84055,3.12966 -6.88597,3.69773 -2.04542,0.56807 -5.96895,1.03097 -8.71895,1.02866 z M 719,297 c 11.90822,0 14,-0.22892 14,-1.53212 0,-0.84266 -0.63955,-3.06278 -1.42122,-4.93358 -0.79018,-1.89116 -2.7662,-4.09698 -4.45034,-4.96788 C 725.46242,284.70489 722.0089,284 719.45395,284 c -2.60655,0 -5.92936,0.75848 -7.5709,1.72816 -1.60904,0.95048 -3.81597,3.56756 -4.90429,5.81572 C 705.89044,293.79204 705,295.93937 705,296.31572 705,296.69208 711.3,297 719,297 Z m 192.24817,30 c -3.5482,0 -6.59234,-0.81892 -10.38398,-2.79344 -4.08581,-2.12771 -6.11241,-4.03926 -8.5038,-8.02103 -1.72679,-2.87517 -3.44749,-7.2807 -3.82379,-9.79005 -0.3763,-2.50935 -0.37205,-6.43739 0.009,-8.72897 0.3815,-2.29158 1.50712,-5.77221 2.50138,-7.73472 0.99426,-1.96252 3.59457,-5.18251 5.77847,-7.15553 2.74097,-2.4763 5.66784,-3.96711 9.45045,-4.81362 3.12722,-0.69984 7.40823,-0.93711 9.97182,-0.55268 2.47065,0.3705 6.5361,1.96991 9.03434,3.55424 2.69193,1.70717 5.66027,4.78838 7.28684,7.56391 2.08876,3.5642 2.85478,6.40009 3.20567,11.86781 0.38023,5.92477 0.0648,8.10563 -1.79882,12.4378 -1.28496,2.98696 -3.92108,6.67519 -6.11047,8.54922 -2.11781,1.81277 -5.59368,3.8182 -7.72416,4.4565 C 918.01108,326.47775 914.00906,327 911.24817,327 Z M 914,320.55858 c 2.475,-0.31355 5.625,-1.38134 7,-2.37287 1.375,-0.99154 3.5125,-3.7843 4.75,-6.20614 1.54634,-3.02626 2.24313,-6.13532 2.22804,-9.94146 -0.013,-3.28236 -0.80396,-7.26078 -1.94186,-9.76745 -1.1085,-2.44191 -3.318,-5.08174 -5.22804,-6.24626 -2.32216,-1.41579 -5.05697,-2.01804 -9.17579,-2.02066 -5.45921,-0.003 -6.1312,0.25981 -9.6539,3.78251 -2.33902,2.33902 -4.24461,5.48849 -4.98543,8.23966 -0.65954,2.44937 -0.92365,6.46353 -0.58691,8.92037 0.33675,2.45683 1.42171,6.06149 2.41102,8.01035 1.14515,2.25583 3.41285,4.38432 6.24081,5.8577 3.47842,1.81226 5.41827,2.19065 8.94206,1.74425 z m 106,6.14697 c -3.575,0.13524 -7.9675,-0.30963 -9.7611,-0.98862 -1.7936,-0.67898 -4.8322,-2.4881 -6.7524,-4.02027 -1.9202,-1.53217 -4.38238,-4.53241 -5.47147,-6.6672 -1.08909,-2.13479 -2.26935,-6.34197 -2.6228,-9.3493 -0.37714,-3.20888 -0.1384,-7.56977 0.57788,-10.55554 0.67128,-2.79823 2.52159,-6.88378 4.11179,-9.07899 1.5902,-2.19522 4.7281,-4.92838 6.9731,-6.07368 2.245,-1.14531 6.2391,-2.33788 8.8757,-2.65015 2.7366,-0.32411 6.4624,-0.0327 8.6816,0.67898 2.1382,0.68571 5.3544,2.34213 7.1469,3.68092 1.7926,1.33879 4.1614,4.20256 5.2641,6.36393 1.1026,2.16137 2.2876,6.6353 2.6332,9.94206 l 0.6284,6.01231 -18.7219,0 -18.7219,0 0.6785,3.25 c 0.3732,1.7875 1.4215,4.55296 2.3295,6.14547 0.908,1.59251 2.9114,3.83501 4.4519,4.98333 2.0823,1.55214 4.2811,2.08787 8.5694,2.08787 3.8535,0 6.6731,-0.59279 8.4937,-1.78564 1.4988,-0.98209 3.1439,-2.88709 3.6558,-4.23333 0.7444,-1.95796 1.6358,-2.4477 4.4553,-2.4477 2.7643,0 3.5248,0.3996 3.5248,1.85212 0,1.01866 -1.0125,3.34202 -2.25,5.16301 -1.2375,1.82099 -4.05,4.24096 -6.25,5.3777 -2.5891,1.33781 -6.2927,2.15355 -10.5,2.31272 z M 1018,297 c 8.9571,0 14,-0.37178 14,-1.03212 0,-0.56766 -0.6205,-2.51711 -1.3788,-4.3321 -0.7584,-1.81499 -2.6191,-4.27553 -4.1349,-5.46788 -2.0135,-1.58382 -4.1341,-2.16689 -7.8712,-2.16416 -3.3077,0.002 -6.2463,0.69348 -8.3166,1.95578 -1.7607,1.07362 -3.8982,3.29959 -4.75,4.9466 -0.8517,1.64701 -1.5485,3.69191 -1.5485,4.54422 0,1.32575 2.0228,1.54966 14,1.54966 z m 217.5,29.98465 c -3.1617,-0.003 -6.8813,-0.88017 -10.117,-2.38681 -2.8144,-1.31044 -6.2462,-3.89354 -7.6263,-5.74023 -1.38,-1.84669 -3.0651,-5.0917 -3.7447,-7.21115 -0.6795,-2.11944 -1.2184,-6.80624 -1.1976,-10.4151 0.03,-5.18877 0.6319,-7.72306 2.8771,-12.11316 2.0574,-4.02299 4.0895,-6.3246 7.3801,-8.35907 2.5834,-1.59715 6.6723,-3.0591 9.4847,-3.39113 2.7365,-0.32307 6.9451,-0.0439 9.4265,0.62541 2.8999,0.78213 5.9489,2.67518 8.6349,5.36112 2.4395,2.43953 4.6097,5.80053 5.2616,8.14877 0.6103,2.19818 1.1121,5.9092 1.1151,8.2467 l 0.01,4.25 -18.1317,0 -18.1316,0 0.5416,4.0381 c 0.2979,2.22095 1.2634,5.13969 2.1456,6.48607 0.8822,1.34639 2.6394,3.12644 3.905,3.95567 1.2656,0.82923 4.3099,1.78305 6.7653,2.11959 3.0125,0.41292 5.6816,0.10327 8.2077,-0.95221 2.0894,-0.87301 4.5066,-2.90521 5.4708,-4.59934 1.4404,-2.53105 2.3502,-3.03628 5.4773,-3.04156 2.0625,-0.003 3.75,0.23313 3.75,0.5258 0,0.29266 -0.6138,2.00118 -1.364,3.79669 -0.7502,1.79552 -2.7892,4.46377 -4.5311,5.92945 -1.7418,1.46569 -4.8405,3.12966 -6.886,3.69773 -2.0454,0.56807 -5.9689,1.03097 -8.7189,1.02866 z M 1235,297 c 11.9082,0 14,-0.22892 14,-1.53212 0,-0.84266 -0.6396,-3.06278 -1.4212,-4.93358 -0.7902,-1.89116 -2.7662,-4.09698 -4.4504,-4.96788 C 1241.4624,284.70489 1238.0296,284 1235.5,284 c -2.5296,0 -5.9226,0.68427 -7.5398,1.52061 -1.6173,0.83633 -3.845,3.2934 -4.9504,5.46016 -1.1054,2.16675 -2.0098,4.40748 -2.0098,4.97939 0,0.67027 4.9758,1.03984 14,1.03984 z m 46.4619,29.99442 c -3.2625,0.004 -6.59,-0.78741 -9.4415,-2.24442 -2.4218,-1.2375 -5.1826,-3.375 -6.135,-4.75 -0.9524,-1.375 -2.027,-3.9625 -2.388,-5.75 -0.6549,-3.2428 -0.6473,-3.25 3.4231,-3.25 3.2426,0 4.0795,0.36465 4.0795,1.77749 0,0.97763 0.6913,2.76444 1.5362,3.9707 0.8449,1.20626 3.2765,2.71462 5.4035,3.3519 2.1618,0.64768 5.4781,0.85652 7.5196,0.47352 2.0087,-0.37684 4.5272,-1.56006 5.5965,-2.62939 1.0693,-1.06932 1.9442,-3.08967 1.9442,-4.48967 0,-1.4 -1.0125,-3.5522 -2.25,-4.78267 -1.5028,-1.49429 -5.0191,-2.83004 -10.5888,-4.02243 -6.5522,-1.40275 -9.0882,-2.47207 -11.8369,-4.99106 -3.0288,-2.77567 -3.5079,-3.84652 -3.5704,-7.98051 -0.049,-3.25554 0.5539,-5.63423 1.8955,-7.47628 1.0822,-1.48588 3.9492,-3.7141 6.371,-4.9516 2.4602,-1.25708 6.1854,-2.24031 8.4415,-2.22804 2.221,0.0121 5.8381,0.84853 8.0381,1.85877 2.2,1.01025 4.7238,2.68786 5.6084,3.72804 0.8846,1.04018 2.0987,3.35373 2.698,5.14123 l 1.0896,3.25 -3.948,0 c -2.1714,0 -3.948,-0.47045 -3.948,-1.04545 0,-0.575 -1.1045,-2.15 -2.4545,-3.5 C 1286.618,284.52706 1285.0553,284 1281.268,284 c -2.7467,0 -5.7798,0.67016 -7.0455,1.5567 -1.56,1.0927 -2.2225,2.57619 -2.2225,4.97695 0,2.46175 0.6305,3.81607 2.25,4.83269 1.2375,0.77684 5.6294,2.14385 9.7597,3.03779 4.1303,0.89395 8.979,2.51893 10.7749,3.61107 1.7959,1.09215 3.7435,3.22301 4.3281,4.73526 0.5846,1.51225 0.8624,4.90808 0.6174,7.54629 -0.3271,3.52204 -1.199,5.58324 -3.281,7.75633 -1.5595,1.62777 -4.436,3.40422 -6.3923,3.94767 -1.9562,0.54345 -5.8239,0.99061 -8.5949,0.99367 z M 353.94229,326 c -3.83862,0 -3.87794,-0.0383 -2.82604,-2.75 0.58671,-1.5125 5.27345,-14.9 10.41499,-29.75 5.14153,-14.85 9.86938,-28.4625 10.50633,-30.25 1.10654,-3.10536 1.39108,-3.25 6.39359,-3.25 l 5.23551,0 10.81317,31.75 c 5.94724,17.4625 11.02039,32.3125 11.27365,33 0.31986,0.86827 -0.75969,1.25 -3.53505,1.25 l -3.99554,0 -3.27462,-9.5 -3.27462,-9.5 -13.75437,0 -13.75436,0 -3.16493,9.5 -3.16493,9.5 -3.89278,0 z M 378,301 c 6.05,0 11,-0.3226 11,-0.71688 0,-0.39429 -2.35197,-7.81929 -5.22661,-16.5 C 380.89876,275.1024 378.30073,268 378,268 c -0.30073,0 -2.89876,7.1024 -5.77339,15.78312 C 369.35197,292.46383 367,299.88883 367,300.28312 367,300.6774 371.95,301 378,301 Z m 104.26804,24.79913 -5.08758,0.29913 -1.97051,-5.29913 c -1.08379,-2.91452 -4.94939,-13.42904 -8.59023,-23.36559 C 462.97887,287.49699 460,279.05949 460,278.68354 460,278.30759 461.76767,278 463.92815,278 c 3.82713,0 3.97775,0.13501 5.85693,5.25 1.06083,2.8875 4.31442,11.93255 7.2302,20.10011 l 5.30143,14.85011 2.66384,-7.35011 c 1.46511,-4.04256 4.65635,-13.08573 7.09165,-20.09593 l 4.4278,-12.74582 3.75,-0.004 c 2.36768,-0.003 3.72771,0.45659 3.68952,1.24582 -0.0333,0.6875 -3.77825,11.375 -8.32219,23.75 l -8.26171,22.5 -5.08758,0.29913 z M 565,326 l -4,0 0,-24 0,-24 4,0 c 3.9452,0 4,0.0506 4,3.69617 l 0,3.69616 3.25,-3.06206 c 1.7875,-1.68413 4.77965,-3.5724 6.64922,-4.19616 1.86958,-0.62376 4.00708,-1.13411 4.75,-1.13411 0.86897,0 1.35078,1.21026 1.35078,3.39301 0,2.17149 -0.56946,3.61153 -1.58179,4 -0.86998,0.33385 -2.48805,0.60699 -3.59571,0.60699 -1.10765,0 -3.31358,0.76773 -4.90205,1.70606 -1.58847,0.93834 -3.5704,3.14385 -4.40429,4.90113 C 569.36263,294.03807 569,298.53314 569,310.40113 L 569,326 l -4,0 z m 86,0 -4,0 0,-24 0,-24 4,0 c 3.82659,0 4,0.13761 4,3.17431 l 0,3.17432 2.26365,-2.12659 c 1.245,-1.16962 3.93055,-2.82306 5.96788,-3.67431 2.03733,-0.85125 5.40619,-1.53785 7.48635,-1.52577 2.08017,0.0121 5.70982,0.89688 8.06589,1.96623 3.27029,1.48428 4.74376,2.95775 6.22804,6.22804 1.695,3.73456 1.94708,6.62354 1.96623,22.53377 L 687,326 l -3.5,0 -3.5,0 -0.006,-15.75 c -0.003,-8.6625 -0.47402,-17.43678 -1.04656,-19.4984 -0.70341,-2.53287 -1.98262,-4.23533 -3.94476,-5.25 C 673.4056,284.67572 670.45706,284 668.45037,284 c -2.00669,0 -5.08631,0.68227 -6.8436,1.51616 -1.75728,0.83389 -3.96279,2.81582 -4.90113,4.40429 C 655.28253,292.33029 655,295.55692 655,309.40429 L 655,326 l -4,0 z m 137,0 -4,0 0,-33.1112 0,-33.11121 14.29298,0.36959 c 12.90094,0.33359 14.76918,0.61464 19.18235,2.88574 3.57125,1.83783 5.51418,3.69769 7.20702,6.8989 1.37928,2.60826 2.31765,6.11467 2.31765,8.66036 0,2.35269 -0.47998,5.54442 -1.06661,7.09272 -0.58664,1.54831 -2.04914,3.88876 -3.25,5.20102 -1.20087,1.31226 -4.3395,3.35143 -6.97475,4.53149 l -4.79137,2.14557 9.54137,13.6452 c 5.24775,7.50485 9.54136,13.90318 9.54136,14.21851 0,0.31532 -1.9125,0.55671 -4.25,0.53643 l -4.25,-0.0369 -9.5,-13.93896 -9.5,-13.93895 -5.25,-0.0242 L 792,298 l 0,14 0,14 -4,0 z m 12.53212,-35 c 5.11169,0 9.89573,-0.56975 11.93358,-1.42122 1.98104,-0.82773 4.1021,-2.7761 5.07926,-4.66572 1.1462,-2.21652 1.5188,-4.65503 1.17598,-7.69648 -0.34006,-3.01707 -1.34947,-5.3004 -3.13181,-7.08428 -2.45009,-2.45222 -3.34694,-2.65563 -13.10957,-2.97332 L 792,266.81795 l 0,12.09103 0,12.09102 8.53212,0 z M 843,326 l -4,0 0,-35.5 0,-35.5 4,0 4,0 0,14.68709 0,14.68709 2.75,-2.55102 c 1.5125,-1.40307 4.27965,-3.06226 6.14922,-3.6871 1.86958,-0.62483 4.99,-1.13606 6.93428,-1.13606 1.94428,0 5.45008,0.92705 7.79067,2.06011 3.08971,1.4957 4.82002,3.22601 6.31572,6.31572 1.8486,3.8187 2.06011,6.12258 2.06011,22.43989 L 879,326 l -3.40287,0 -3.40286,0 -0.36412,-17.75 c -0.27091,-13.20649 -0.72993,-18.30772 -1.79323,-19.92884 -0.78602,-1.19836 -2.48706,-2.66086 -3.78008,-3.25 C 864.96382,284.48202 862.10472,284 859.90329,284 c -2.20144,0 -5.32265,0.68262 -6.93602,1.51693 -1.61338,0.83431 -3.61603,2.83696 -4.45034,4.45034 C 847.3403,292.24262 847,296.61331 847,309.45034 L 847,326 l -4,0 z m 106.5,0 -3.5,0 0,-24 0,-24 3.5,0 c 3.34767,0 3.5,0.15568 3.5,3.57692 l 0,3.57693 3.05252,-3.05253 c 1.67889,-1.67888 4.93673,-3.55988 7.23965,-4.17999 2.30293,-0.62012 6.21679,-0.85351 8.69748,-0.51866 2.48069,0.33486 5.63535,1.42009 7.01035,2.41162 1.375,0.99154 3.5125,3.7843 4.75,6.20614 2.08398,4.07844 2.25,5.71589 2.25,22.19146 L 986,326 l -4,0 -4,0 0,-18.07692 0,-18.07693 -2.92308,-2.92307 C 972.63686,284.48302 971.33936,284 967.22481,284 c -3.47555,0 -5.93102,0.6737 -8.32693,2.28463 -1.94145,1.30537 -3.90947,3.76998 -4.59144,5.75 -0.70912,2.05887 -1.21646,9.65491 -1.25,18.71537 L 953,326 l -3.5,0 z m 129.4423,0 c -3.8379,0 -3.8778,-0.0388 -2.8289,-2.75 0.5851,-1.5125 5.1259,-14.45 10.0907,-28.75 4.9648,-14.3 9.6923,-27.9125 10.5054,-30.25 l 1.4785,-4.25 5.212,0 5.212,0 10.8465,31.75 c 5.9655,17.4625 11.051,32.3125 11.3009,33 0.3153,0.86706 -0.7675,1.25 -3.5347,1.25 l -3.9892,0 -3.3395,-9.5 -3.3394,-9.5 -13.6958,0 -13.6959,0 -3.1649,9.5 -3.1649,9.5 -3.8928,0 z M 1103,301 c 6.05,0 11,-0.3226 11,-0.71688 0,-0.39429 -2.352,-7.81929 -5.2266,-16.5 C 1105.8988,275.1024 1103.3007,268 1103,268 c -0.3007,0 -2.8988,7.1024 -5.7734,15.78312 -2.8746,8.68071 -5.2266,16.10571 -5.2266,16.5 0,0.39428 4.95,0.71688 11,0.71688 z m 40,25 -4,0 0,-35.5 0,-35.5 4,0 4,0 0,35.5 0,35.5 -4,0 z m -382.5,-22 -9.5,0 0,-3.5 0,-3.5 9.5,0 9.5,0 0,3.5 0,3.5 -9.5,0 z m 298.5,0 -10,0 0,-3.5 0,-3.5 10,0 10,0 0,3.5 0,3.5 -10,0 z M 901.4381,270 c -1.77054,0 -2.33007,-0.38417 -1.82058,-1.25 0.40455,-0.6875 2.70741,-3.8375 5.11746,-7 3.73463,-4.90063 4.85718,-5.75 7.59936,-5.75 2.81794,0 3.86789,0.86918 8.45586,7 5.1892,6.93424 5.21341,7 2.5771,7 -1.57403,0 -4.45146,-1.46689 -7.04299,-3.59045 l -4.38167,-3.59045 -3.9742,3.59045 C 905.59123,268.55721 902.96708,270 901.4381,270 Z M 730,240.68258 c -8.42815,0.20132 -13.80299,-0.13223 -16.5,-1.02393 -2.2,-0.72738 -5.35,-2.03297 -7,-2.9013 -1.65,-0.86834 -4.18613,-2.85647 -5.63584,-4.41807 -1.44971,-1.56161 -3.29906,-4.18928 -4.10966,-5.83928 -0.8106,-1.65 -1.77055,-4.2375 -2.13321,-5.75 l -0.65939,-2.75 9.55043,0 c 8.1937,0 9.63818,0.24861 10.16807,1.75 0.33969,0.9625 1.51078,2.7431 2.60242,3.95688 1.16343,1.29361 4.14242,2.6548 7.19863,3.28927 3.42901,0.71186 6.64223,0.76145 9.38643,0.14487 2.29493,-0.51564 5.27912,-1.66254 6.63155,-2.54869 1.35242,-0.88614 3.2193,-3.06943 4.14861,-4.85175 0.98417,-1.88753 1.88419,-6.52175 2.15557,-11.09903 l 0.46592,-7.85845 -4.45838,4.45838 c -2.45211,2.45211 -6.56127,5.26148 -9.13148,6.24305 -3.48035,1.32916 -6.4222,1.65953 -11.52596,1.29436 -4.99782,-0.3576 -8.28205,-1.26819 -12.13255,-3.36389 -2.92505,-1.59201 -6.78586,-4.84615 -8.65691,-7.29658 -1.85747,-2.43266 -4.04931,-6.68616 -4.87074,-9.45222 C 694.67208,189.90014 694,184.13555 694,179.85601 c 0,-5.50947 0.62662,-9.45578 2.14646,-13.51792 1.25524,-3.35491 3.96913,-7.68551 6.53624,-10.42995 2.50385,-2.67683 6.58264,-5.63638 9.49403,-6.88882 3.58389,-1.54175 7.11953,-2.19579 11.87008,-2.19579 4.49986,0 8.22058,0.64352 11.10951,1.92144 2.38902,1.05679 5.80618,3.58716 7.59368,5.62303 l 3.25,3.70159 0,-5.03479 0,-5.0348 9.56858,0 9.56858,0 -0.31858,35.25 c -0.31045,34.3508 -0.37755,35.38029 -2.63038,40.3574 -1.27149,2.80906 -3.97149,6.72436 -6,8.70065 -2.02851,1.97629 -5.9382,4.60186 -8.6882,5.8346 -4.14821,1.85953 -7.12948,2.29222 -17.5,2.53993 z m 0.79147,-41.96291 c 3.15757,-0.23338 6.38375,-1.18668 8,-2.36392 1.48969,-1.08506 3.72103,-3.95434 4.95853,-6.37618 1.59065,-3.11298 2.25,-6.15351 2.25,-10.37574 0,-3.92865 -0.68442,-7.38621 -2.00009,-10.10401 -1.2747,-2.63318 -3.40948,-4.92376 -5.88615,-6.31573 -2.34749,-1.31936 -5.61381,-2.18347 -8.24991,-2.18254 -2.40012,8.6e-4 -5.92988,0.78836 -7.84392,1.75 -1.91403,0.96165 -4.4789,3.24392 -5.69971,5.07171 -1.22081,1.8278 -2.51837,5.3153 -2.88348,7.75 -0.3651,2.43471 -0.3651,6.41877 0,8.85348 0.36511,2.4347 1.66267,5.9222 2.88348,7.75 1.22081,1.82779 3.78568,4.13568 5.69971,5.12864 2.47487,1.2839 5.00849,1.69241 8.77154,1.41429 z m -280.35499,18.65966 c -3.26506,0.28646 -7.6386,0.0973 -9.71898,-0.42037 -2.08037,-0.51767 -5.09461,-1.61973 -6.6983,-2.44903 -1.6037,-0.82931 -4.15869,-3.13732 -5.67776,-5.12892 -2.1889,-2.8698 -2.84714,-4.95907 -3.17256,-10.0698 -0.3037,-4.76946 0.0606,-7.49372 1.39903,-10.4618 1.07699,-2.38834 3.52165,-5.19098 6.03823,-6.92244 2.32572,-1.60013 6.68043,-3.54796 9.67713,-4.3285 2.9967,-0.78054 10.00888,-1.74248 15.58264,-2.13764 L 468,174.74236 l 0,-3.30608 c 0,-1.81835 -0.43067,-4.43882 -0.95704,-5.82328 -0.52637,-1.38447 -2.30402,-3.21376 -3.95034,-4.0651 C 461.44631,160.69655 458.70463,160 457,160 c -1.70463,0 -4.46242,0.70489 -6.12844,1.56642 -1.69489,0.87646 -3.66103,3.0788 -4.46376,5 L 444.97316,170 l -8.96158,0 -8.96158,0 0.61935,-3.25 c 0.34065,-1.7875 1.41061,-4.825 2.37769,-6.75 0.96708,-1.925 2.81462,-4.46172 4.10564,-5.63715 1.29103,-1.17543 4.26812,-3.10131 6.61577,-4.27974 2.34765,-1.17842 7.29765,-2.52153 11,-2.98468 3.70285,-0.46322 9.55747,-0.45421 13.01241,0.02 3.45448,0.47416 7.72948,1.59186 9.5,2.48378 1.77053,0.89192 4.69397,3.02152 6.49654,4.73245 1.96991,1.86976 3.86488,5.08903 4.75,8.06955 1.12049,3.77309 1.4726,10.77352 1.4726,29.27727 l 0,24.3185 -9.5,0 -9.5,0 0,-3.68709 0,-3.68709 -2.75,2.57293 c -1.5125,1.41511 -4.12858,3.26746 -5.81352,4.11633 -1.68493,0.84888 -5.73493,1.77779 -9,2.06425 z M 457,203.98065 c 1.925,-0.34677 4.50784,-1.17261 5.73965,-1.83521 1.23181,-0.6626 2.91931,-2.51904 3.75,-4.12542 C 467.32034,196.41363 468,193.27697 468,191.04966 L 468,187 l -7.47976,0 c -4.50274,0 -9.06074,0.63258 -11.45194,1.58935 -2.96693,1.18713 -4.245,2.41603 -5.05025,4.85596 -0.71697,2.17245 -0.75373,4.11969 -0.10975,5.81351 0.53258,1.4008 1.51931,2.88742 2.19273,3.30362 0.67341,0.41619 2.61367,1.04741 4.31168,1.4027 1.69801,0.35529 4.66229,0.36227 6.58729,0.0155 z m 191.5,13.90223 c -1.65,-0.0561 -5.00461,-0.49497 -7.4547,-0.97524 -2.45008,-0.48028 -6.79733,-2.01938 -9.66054,-3.42022 -2.86322,-1.40084 -6.87181,-4.391 -8.90798,-6.6448 -2.03617,-2.25379 -4.66392,-6.17789 -5.83945,-8.72022 C 614.8639,194.28702 614.5,191.62712 614.5,182.5 c 0,-9.98756 0.25423,-11.51768 2.76217,-16.62454 1.51919,-3.09349 4.91695,-7.64009 7.55058,-10.10354 2.89349,-2.70652 7.13208,-5.35588 10.71081,-6.69485 4.04929,-1.51503 8.19498,-2.22477 13.10786,-2.24403 3.95201,-0.0155 9.77015,0.7232 12.9292,1.64156 4.56696,1.32765 6.89872,2.83301 11.38119,7.34757 4.15656,4.18632 6.08812,7.09133 7.35301,11.05871 0.94355,2.95948 2.00283,8.47198 2.35396,12.25 L 683.2872,186 l -25.25489,0 -25.25489,0 0.68684,3.75 c 0.37776,2.0625 1.44034,5.05296 2.36129,6.64547 0.92095,1.59251 2.9059,3.81336 4.41101,4.93522 1.78188,1.32815 4.78769,2.18811 8.61601,2.46503 4.19051,0.30311 6.91122,-0.0643 9.47118,-1.27911 2.03349,-0.96495 4.14981,-2.96518 4.8781,-4.6105 1.27877,-2.88893 1.33812,-2.90611 10.04226,-2.90611 7.19793,0 8.75589,0.27261 8.75589,1.53212 0,0.84266 -0.60681,2.98016 -1.34846,4.75 -0.74166,1.76983 -2.60027,4.7025 -4.13026,6.51704 -1.52999,1.81454 -4.92283,4.38411 -7.53964,5.71014 -2.61681,1.32604 -7.62069,2.87552 -11.11974,3.44329 -3.49904,0.56776 -7.7119,0.9864 -9.3619,0.93029 z M 648.6811,175 l 15.54148,0 -0.68403,-3.6462 c -0.37622,-2.00541 -1.39312,-4.72841 -2.25979,-6.05111 -0.86667,-1.3227 -2.83659,-3.05691 -4.3776,-3.8538 C 655.36015,160.652 651.6365,160 648.62639,160 c -4.43921,0 -6.05833,0.49257 -8.57221,2.60786 -1.70459,1.43433 -3.58852,3.52205 -4.1865,4.63939 -0.59798,1.11734 -1.45643,3.3188 -1.90766,4.89214 L 633.13961,175 l 15.54149,0 z m 207.11975,42.43973 c -3.51175,0.28194 -8.73545,-0.0572 -11.80085,-0.76609 -3.025,-0.69957 -7.3,-2.14046 -9.5,-3.20199 -2.2,-1.06152 -5.81074,-3.73941 -8.02386,-5.95085 -2.21312,-2.21144 -5.10604,-6.2708 -6.4287,-9.0208 -1.86959,-3.88714 -2.49722,-7.11444 -2.81989,-14.5 -0.34759,-7.95608 -0.066,-10.42662 1.73245,-15.20163 1.19579,-3.17482 4.13897,-7.91662 6.64114,-10.69964 2.4715,-2.7489 6.83481,-6.13966 9.69625,-7.53501 2.86143,-1.39536 8.01511,-2.91854 11.45261,-3.38486 3.4375,-0.46631 9.0625,-0.46631 12.5,0 3.4375,0.46632 8.56368,1.97605 11.39151,3.35496 2.82783,1.37891 7.03043,4.55635 9.33911,7.06098 2.30868,2.50462 5.17,6.65791 6.35849,9.22953 1.78045,3.85249 2.16089,6.52426 2.16089,15.17567 0,9.44157 -0.27843,11.06697 -2.76217,16.12454 -1.51919,3.09349 -4.91695,7.64009 -7.55058,10.10354 -2.80338,2.62224 -7.13001,5.3551 -10.43698,6.5924 -3.10672,1.16237 -8.48396,2.34104 -11.94942,2.61925 z m -2.90297,-14.44347 c 3.79578,-0.003 6.63704,-0.63476 8.81178,-1.96077 1.76532,-1.07637 4.21682,-3.88719 5.44779,-6.24626 1.75553,-3.36434 2.24939,-6.01943 2.29034,-12.31314 0.0433,-6.66165 -0.37223,-8.84871 -2.44779,-12.88202 -1.60509,-3.11906 -3.7473,-5.52677 -5.9844,-6.72608 C 859.0822,161.83149 855.51425,161 853,161 c -2.49216,0 -6.09918,0.83225 -8.0156,1.84945 -1.99221,1.05743 -4.55502,3.73398 -5.9844,6.25 -2.12545,3.74125 -2.5,5.67403 -2.5,12.90055 0,6.67367 0.44842,9.35945 2.08699,12.5 1.14784,2.2 3.57689,5.0125 5.39788,6.25 2.46231,1.67332 4.74673,2.24904 8.91301,2.24626 z M 384.5,216 l -29.5,0 0,-46.5 0,-46.5 10.5,0 10.5,0 0,38.5 0,38.5 19,0 19,0 0,8 0,8 -29.5,0 z m 158,0 -10.5,0 0,-46.59356 0,-46.59357 23.25,0.40081 c 20.94909,0.36114 23.7943,0.6158 28.75,2.57326 3.025,1.19485 7.13174,3.51839 9.12608,5.16342 1.99435,1.64503 4.57584,5.01147 5.73665,7.48099 1.16081,2.46951 2.39488,6.90917 2.74239,9.8659 0.43988,3.7427 0.1115,7.17235 -1.0809,11.28931 -1.2873,4.44457 -2.78715,6.94583 -6.03818,10.06968 -2.37899,2.28593 -5.93658,4.73883 -7.90574,5.45088 -1.96917,0.71206 -3.5803,1.57505 -3.5803,1.91776 0,0.3427 5.21307,8.9148 11.5846,19.04911 6.37153,10.1343 11.79809,18.76351 12.05902,19.17601 0.26093,0.4125 -4.65181,0.75 -10.91719,0.75 l -11.39161,0 -11.0085,-17.75 -11.0085,-17.75 -4.65891,-0.30479 -4.65891,-0.30479 0,18.05479 0,18.05479 -10.5,0 z m 18.75,-50.05644 c 4.5375,-0.031 9.80942,-0.59355 11.71537,-1.25 2.00282,-0.68982 4.46719,-2.67072 5.83907,-4.69356 1.9507,-2.87628 2.29851,-4.43695 1.95172,-8.75769 -0.30003,-3.73823 -1.09905,-5.9784 -2.76481,-7.75152 -1.28856,-1.37161 -3.95125,-2.94064 -5.91709,-3.48673 -1.96584,-0.5461 -7.06176,-0.99542 -11.32426,-0.99848 L 553,139 l 0,13.5 0,13.5 8.25,-0.0564 z M 792.5,216 l -9.5,0 0,-34 0,-34 9.5,0 9.5,0 0,34 0,34 -9.5,0 z m 121,0 -9.5,0 0,-34 0,-34 9.5,0 9.5,0 0,4.68984 0,4.68984 3.25,-3.34468 c 1.7875,-1.83957 5.20466,-4.21471 7.59368,-5.27807 2.90574,-1.29336 6.5859,-1.9334 11.11689,-1.9334 4.79595,0 7.90676,0.58119 10.65631,1.99092 2.13572,1.095 4.84298,3.04721 6.01615,4.33823 1.17316,1.29103 2.97316,3.92232 4,5.84732 1.66213,3.11599 1.90236,6.4349 2.18954,30.25 l 0.32257,26.75 -9.52206,0 -9.52205,0 -0.30051,-24.08371 -0.30052,-24.08371 -3.26578,-2.91629 c -2.63504,-2.35305 -4.18011,-2.91557 -8,-2.91255 -2.92975,0.002 -5.95446,0.74776 -7.93567,1.95578 -1.7608,1.07362 -3.8983,3.29959 -4.75,4.9466 C 923.28784,171.34405 923,175.99927 923,193.95034 L 923,216 l -9.5,0 z m -265.60656,-77 -6.80153,0 3.70405,-10.4979 3.70404,-10.49791 9.75,-0.002 c 5.3625,-0.001 9.75,0.22664 9.75,0.50621 0,0.27956 -2.99363,5.00456 -6.65251,10.5 l -6.65251,9.9916 -6.80154,0 z m 145.96233,-0.47111 c -1.84567,0.24061 -4.30612,0.0325 -5.46765,-0.46239 -1.16154,-0.49493 -3.07404,-2.12304 -4.25,-3.61804 C 782.93849,132.92337 782,130.28689 782,128.44187 c 0,-2.06934 0.94915,-4.41642 2.56028,-6.33114 1.48408,-1.76373 3.93819,-3.30122 5.83835,-3.65769 2.01644,-0.37829 4.70116,-0.0204 6.9757,0.93001 2.61593,1.093 4.14034,2.60449 5.21091,5.16672 1.21371,2.9048 1.28789,4.30461 0.37477,7.07141 -0.62617,1.89731 -2.17574,4.12929 -3.44348,4.95995 -1.26774,0.83065 -3.81509,1.70715 -5.66076,1.94776 z"
     id="path4159"
     inkscape:connector-curvature="0" />
</svg>
